<svg xmlns="http://www.w3.org/2000/svg" width="200" height="47.596"><defs><style>.a{fill:#fff}</style></defs><path class="a" d="M70.2 32.066a4.849 4.849 0 0 1 2.573-4.728 16.832 16.832 0 0 1 7.5-1.324h2.207v-1.019a6.694 6.694 0 0 0-1.254-4.053 4.452 4.452 0 0 0-3.849-1.72 7.745 7.745 0 0 0-3.135.614 15.713 15.713 0 0 1-1.493.614.941.941 0 0 1-.823-.47 1.86 1.86 0 0 1-.3-1.023q0-.823 1.859-1.511a11.311 11.311 0 0 1 3.979-.692q4.062 0 5.947 2.355a9.309 9.309 0 0 1 1.881 5.991v11.246a1 1 0 0 1-.392.8 1.5 1.5 0 0 1-.993.327 1.359 1.359 0 0 1-.932-.327 1.031 1.031 0 0 1-.366-.8v-1.9a8.525 8.525 0 0 1-6.531 3.331 6.162 6.162 0 0 1-4.236-1.45 5.353 5.353 0 0 1-1.642-4.261zm2.808-.261a3.362 3.362 0 0 0 1.036 2.7 4.043 4.043 0 0 0 2.725.888 6.011 6.011 0 0 0 3.871-1.515 4.125 4.125 0 0 0 1.837-3.03v-2.769h-1.816a27.487 27.487 0 0 0-2.921.131 13.444 13.444 0 0 0-2.355.475 3.383 3.383 0 0 0-1.772 1.123 3.188 3.188 0 0 0-.605 1.997zM90.567 36.65V18.355a.9.9 0 0 1 .392-.736 1.569 1.569 0 0 1 .993-.3 1.479 1.479 0 0 1 .949.309.913.913 0 0 1 .388.744v2.146a6.827 6.827 0 0 1 2.294-2.451 6.182 6.182 0 0 1 3.5-1.006h1.515a1.031 1.031 0 0 1 .779.4 1.41 1.41 0 0 1 0 1.846 1.031 1.031 0 0 1-.779.4h-1.511a5.456 5.456 0 0 0-3.979 1.746 6.185 6.185 0 0 0-1.728 4.554v10.654a1.006 1.006 0 0 1-.409.779 1.523 1.523 0 0 1-1.014.344 1.467 1.467 0 0 1-.975-.344 1.013 1.013 0 0 1-.415-.79zM104.882 36.65V18.356a.91.91 0 0 1 .387-.736 1.586 1.586 0 0 1 .993-.3 1.5 1.5 0 0 1 .954.309.918.918 0 0 1 .392.744v2.011a6.4 6.4 0 0 1 5.751-3.331 6.143 6.143 0 0 1 3.718 1.2 7.053 7.053 0 0 1 2.421 3.165 7.986 7.986 0 0 1 2.852-3.252 6.9 6.9 0 0 1 8.821 1.093 8.043 8.043 0 0 1 2.164 5.882v11.5a1 1 0 0 1-.414.779 1.523 1.523 0 0 1-1.014.344 1.468 1.468 0 0 1-.975-.344 1 1 0 0 1-.409-.779V25.169a5.367 5.367 0 0 0-1.493-4.014 4.756 4.756 0 0 0-3.44-1.467 4.911 4.911 0 0 0-3.522 1.489 5.087 5.087 0 0 0-1.537 3.818v11.694c0 .718-.475 1.08-1.428 1.08-.923 0-1.384-.361-1.384-1.08v-11.65a5.342 5.342 0 0 0-1.45-3.818 4.631 4.631 0 0 0-3.483-1.533 4.95 4.95 0 0 0-3.566 1.489 5.31 5.31 0 0 0-1.537 3.992v11.477a1 1 0 0 1-.431.779 1.547 1.547 0 0 1-.993.344 1.468 1.468 0 0 1-.975-.344 1.014 1.014 0 0 1-.402-.775zM137.187 32.066a4.849 4.849 0 0 1 2.573-4.728 16.819 16.819 0 0 1 7.5-1.324h2.207v-1.019a6.694 6.694 0 0 0-1.254-4.053 4.452 4.452 0 0 0-3.849-1.72 7.746 7.746 0 0 0-3.135.614 15.709 15.709 0 0 1-1.493.614.941.941 0 0 1-.823-.47 1.825 1.825 0 0 1-.3-1.023q0-.823 1.859-1.511a11.294 11.294 0 0 1 3.979-.692q4.062 0 5.947 2.355a9.309 9.309 0 0 1 1.881 5.991v11.246a1.012 1.012 0 0 1-.388.8 1.5 1.5 0 0 1-.993.327 1.351 1.351 0 0 1-.932-.327 1.031 1.031 0 0 1-.366-.8v-1.9a8.532 8.532 0 0 1-6.531 3.331 6.173 6.173 0 0 1-4.241-1.45 5.353 5.353 0 0 1-1.641-4.261zm2.808-.261a3.362 3.362 0 0 0 1.036 2.7 4.05 4.05 0 0 0 2.725.888 6 6 0 0 0 3.871-1.515 4.111 4.111 0 0 0 1.837-3.03v-2.769h-1.815a27.286 27.286 0 0 0-2.917.131 13.445 13.445 0 0 0-2.355.475 3.366 3.366 0 0 0-1.772 1.123 3.137 3.137 0 0 0-.61 1.997zM157.467 31.426V8.664a.883.883 0 0 1 .435-.736 1.627 1.627 0 0 1 .949-.3 1.693 1.693 0 0 1 .993.3.875.875 0 0 1 .431.731v8.655h5.577a.876.876 0 0 1 .714.353 1.3 1.3 0 0 1 .279.836 1.325 1.325 0 0 1-.279.836.876.876 0 0 1-.714.353h-5.573v11.664a3.939 3.939 0 0 0 .888 2.939 4.569 4.569 0 0 0 3.135.836h1.21a1.234 1.234 0 0 1 .927.379 1.269 1.269 0 0 1 .366.914 1.36 1.36 0 0 1-.366.94 1.191 1.191 0 0 1-.927.4h-1.21q-6.837.014-6.835-6.338zM170.398 36.65V18.356a.9.9 0 0 1 .392-.736 1.569 1.569 0 0 1 .993-.3 1.642 1.642 0 0 1 1.014.3.889.889 0 0 1 .409.736v18.295a1 1 0 0 1-.431.779 1.539 1.539 0 0 1-.993.344 1.468 1.468 0 0 1-.975-.344 1.013 1.013 0 0 1-.409-.78zM177.987 29.554v-4.628a8.3 8.3 0 0 1 2.12-5.9q2.116-2.273 6.226-2.268a9.206 9.206 0 0 1 4.345.927q1.75.927 1.75 1.881a1.441 1.441 0 0 1-.388.932 1.126 1.126 0 0 1-.866.453 1.7 1.7 0 0 1-.8-.379 7.759 7.759 0 0 0-1.537-.779 6.376 6.376 0 0 0-2.377-.4 5.667 5.667 0 0 0-4.214 1.463 5.556 5.556 0 0 0-1.45 4.088v4.6a5.6 5.6 0 0 0 1.45 4.127 5.741 5.741 0 0 0 4.258 1.463 6.809 6.809 0 0 0 4.045-1.2 1.655 1.655 0 0 1 .84-.4 1.178 1.178 0 0 1 .932.431 1.444 1.444 0 0 1 .37.953q0 .993-1.815 1.924a9.784 9.784 0 0 1-4.5.932q-4.154 0-6.269-2.251a8.316 8.316 0 0 1-2.12-5.969zM173.624 12.487a1.885 1.885 0 1 1-1.885-1.885 1.886 1.886 0 0 1 1.885 1.885zM199.999 35.888a1.885 1.885 0 1 1-1.885-1.885 1.886 1.886 0 0 1 1.885 1.885zM27.063 5.146h1.681v4.458h-1.681zM3.579 22.966H2.234a2.232 2.232 0 0 0-2.233 2.233v3.657a2.232 2.232 0 0 0 2.233 2.233h1.345zM52.224 31.09h1.345a2.235 2.235 0 0 0 2.233-2.233V25.2a2.235 2.235 0 0 0-2.233-2.233h-1.345z"/><path class="a" d="M32.635 12.499v-1.567a2.605 2.605 0 0 0-2.6-2.6h-4.262a2.6 2.6 0 0 0-2.6 2.6v1.567z"/><path class="a" d="M43.681 11.629h-31.56a9.919 9.919 0 0 0-9.9 9.9v10.99a9.916 9.916 0 0 0 9.9 9.9h31.561a9.919 9.919 0 0 0 9.9-9.9V21.534a9.916 9.916 0 0 0-9.901-9.905zm7.732 20.894a7.754 7.754 0 0 1-7.732 7.732h-31.56a7.754 7.754 0 0 1-7.732-7.732V21.538a7.75 7.75 0 0 1 7.732-7.728h31.561a7.756 7.756 0 0 1 7.732 7.728z"/><path class="a" d="M40.603 41.94a7.73 7.73 0 0 1-6.444 3.487H21.651a7.712 7.712 0 0 1-6.357-3.37 9.969 9.969 0 0 1-2.482.083 9.907 9.907 0 0 0 8.838 5.455h12.508a9.9 9.9 0 0 0 8.869-5.508 15.475 15.475 0 0 1-2.424-.147zM18.153 19.2a7.83 7.83 0 1 0 7.828 7.828 7.828 7.828 0 0 0-7.828-7.828zm0 13.484a5.653 5.653 0 1 1 5.656-5.656 5.663 5.663 0 0 1-5.656 5.656zM37.658 19.2a7.83 7.83 0 1 0 7.828 7.828 7.828 7.828 0 0 0-7.828-7.828zm0 13.484a5.653 5.653 0 1 1 5.656-5.656 5.663 5.663 0 0 1-5.656 5.656zM30.96 3.056A3.056 3.056 0 1 1 27.904 0a3.055 3.055 0 0 1 3.056 3.056z"/></svg>