<svg version="1" xmlns="http://www.w3.org/2000/svg" width="346.667" height="346.667" viewBox="0 0 260.000000 260.000000"><path d="M122.8 19.7c-15.3 16.1-31.2 42.4-40.3 66.8-4.5 11.9-9.8 32.5-11.6 44.9-1.2 8.4-1.5 9.2-4.8 12-14.6 12.4-26.2 30.1-31.8 48.3-2.4 7.9-2.6 10.5-2.7 24.5-.1 15.1 0 15.8 2.2 18 2.1 2.1 3.1 2.3 13 2.1 6.8-.1 13.4-.9 18.1-2.1l7.3-1.9 4.2 4.1c7.3 7.3 9.2 7.6 53.5 7.6 44.5 0 46.2-.2 53.6-7.4l4.5-4.2 7.2 1.8c4.6 1.2 11.2 2 18 2.1 14.6.3 15-.1 15.6-15.3 1.2-28.5-8.5-52-30.5-73.6-5.2-5.1-8.3-9-8.3-10.3 0-5-5.4-29.1-9.1-40.8-9.2-28.7-24-55.1-41.8-74.6-4.6-5-5.8-5.7-9-5.7-3 0-4.4.7-7.3 3.7zm12.4 19c20.6 26.3 35.4 61 40.3 94.8.9 6 1.9 12 2.3 13.1.4 1.2 3.2 4.2 6.2 6.6 11.8 9.5 22.9 25.6 27.9 40.4 2.4 7.1 4.6 23.4 3.6 27.1-.6 2.5-.8 2.5-6.9 1.9-3.5-.3-8.6-1.3-11.4-2.1l-5.1-1.5.6-6.8c1.4-17.1-6.8-30.1-19.7-31-10.9-.8-18.5 5-21 16.1-2.2 10.2 2.8 18.7 15 25.1 8 4.2 8.1 5.6.5 7.5-6 1.5-69 1.5-75 0-7.6-1.9-7.5-3.3.4-7.4 12-6.3 17-14.1 15.5-24-.9-6.3-5.4-13-10.5-15.6-6.1-3.1-15.2-2.4-20.4 1.5-7.2 5.5-9.8 12.4-9.9 26.1l-.1 9-7 1.7c-3.8.9-8.9 1.7-11.2 1.7-4.1.1-4.2.1-4.5-3.7-.8-10.3 2.5-25.7 8-36.7 5.5-11 16.8-24.7 26.1-31.7 3.2-2.5 3.4-2.9 5.2-14.8 5.5-35.9 18.3-67.2 38.7-94.3 3.6-4.8 6.9-8.7 7.2-8.7.4 0 2.7 2.6 5.2 5.7zM92.5 196.5c4.7 4.6 2.2 9.7-7.2 14.4L81 213v-4.5c0-7.7 3.7-14 8.3-14.4.4-.1 1.9 1 3.2 2.4zm80.8-1.6c3.3 1.3 5.7 6.8 5.7 13v5.1l-4.2-2.1c-9.5-4.7-12-9.8-7.3-14.4 2.8-2.8 2.6-2.8 5.8-1.6z"/><path d="M119.5 107.9c-9.1 4.2-14.4 12.6-14.5 22.9 0 10.4 4.2 17.8 13 22.6 4.4 2.4 6.5 2.9 11.9 2.9 10.7-.1 18.2-4.5 22.7-13.5 6.3-12.5 1.3-28.2-10.8-34.2-6.5-3.3-16.1-3.6-22.3-.7zm15 12.5c3.9 1.6 7.5 6.8 7.5 10.6 0 5.6-6.5 12-12.3 12-4 0-9.1-4.1-10.6-8.6-1.3-3.7-1.2-4.4.5-8 1.2-2.4 3.2-4.6 5.4-5.6 4.2-2.2 5.1-2.2 9.5-.4z"/></svg>