<svg xmlns="http://www.w3.org/2000/svg" width="56.92" height="60.72" viewBox="0 0 56.92 60.72"><g fill="none" stroke="#fff" stroke-linecap="round" stroke-linejoin="round" stroke-miterlimit="10" stroke-width="3"><path d="M12.08 59.22a1.948 1.948 0 0 0 1.94-1.94V38.72a1.948 1.948 0 0 0-1.94-1.94H3.44a1.948 1.948 0 0 0-1.94 1.94v18.56a1.948 1.948 0 0 0 1.94 1.94zM32.78 59.22a1.948 1.948 0 0 0 1.94-1.94V26.02a1.948 1.948 0 0 0-1.94-1.94h-8.64a1.948 1.948 0 0 0-1.94 1.94v31.26a1.948 1.948 0 0 0 1.94 1.94zM53.48 59.22a1.948 1.948 0 0 0 1.94-1.94V11.74a1.948 1.948 0 0 0-1.94-1.94h-8.64a1.948 1.948 0 0 0-1.94 1.94v45.54a1.948 1.948 0 0 0 1.94 1.94zM4.46 23.22s22.25-5.25 31-19.5"/><path d="M30.67 1.5h7.42v7.41"/></g></svg>