<svg xmlns="http://www.w3.org/2000/svg" width="68.316" height="64.63" viewBox="0 0 68.316 64.63"><g fill="none" stroke="#fff" stroke-linecap="round" stroke-linejoin="round" stroke-miterlimit="10" stroke-width="3"><path d="M54.98 31.25c3.62-4.29 6.3-9.65 6.3-15.6a14.144 14.144 0 0 0-24-10.15 14.144 14.144 0 0 0-24 10.15c0 5.88 2.69 11.05 6.27 15.33"/><path d="M1.5 50.19l13.27 12.94 6.47-8.33 27.96-3.51L66.75 28.7a3.391 3.391 0 0 0-1.54-3.18c-3.56-2.88-5.81.44-5.81.44L47.67 40l-13.6 2.63-4.39-4.83 9.87-4.06s4.28-2.3 3.07-5.48a4.007 4.007 0 0 0-4.5-2.52l-20.62 5.7z"/></g></svg>