<svg xmlns="http://www.w3.org/2000/svg" width="68.16" height="61.067" viewBox="0 0 68.16 61.067"><g stroke-width="3" stroke="#fff" stroke-linecap="round" stroke-linejoin="round" stroke-miterlimit="10" fill="none"><path d="M16.55 28.077l8.53 20.22M10.95 39.807l5.36 12.7M30.47 30.597c9.61 9.61 5.74 12.39 5.74 12.39L1.5 59.567l16.58-34.71c0-.01 2.78-3.87 12.39 5.74zM28.03 6.977s1.93 9.21-2.05 13.76M58.06 15.967s-14.16 5.06-21.56 13.71M55.33 33.937s-8.99-1.71-14.22 2.16M36.96 17.497a14.138 14.138 0 0 1-4.21 6.48M37.78 6.097a2.694 2.694 0 1 1 0-3.81 2.7 2.7 0 0 1 0 3.81zM34.34 10.897a2.944 2.944 0 0 1-.51 1.54M49.53 13.577a3.461 3.461 0 0 1-1.02 1.25M22.05 14.197a2.287 2.287 0 0 1 0 1.93M49.98 40.537a4.2 4.2 0 0 0-2.1.06M66.66 27.227h-2.02M58.53 27.227h-2.01M61.59 32.297v-2.01M61.59 24.167v-2.01"/></g></svg>