<svg xmlns="http://www.w3.org/2000/svg" xmlns:xlink="http://www.w3.org/1999/xlink" width="475" height="498.279" viewBox="0 0 475 498.279"><defs><linearGradient id="a" x1="-.001" y1=".501" x2="1" y2=".501" gradientUnits="objectBoundingBox"><stop offset="0" stop-color="#d5ece4"/><stop offset="1" stop-color="#afe0ea"/></linearGradient><linearGradient id="b" x1="-.002" y1=".5" x2=".999" y2=".5" gradientUnits="objectBoundingBox"><stop offset=".216" stop-color="#d5ece4"/><stop offset=".765" stop-color="#afe0ea"/></linearGradient><linearGradient id="c" x1="-124.596" y1=".5" x2="-112.575" y2=".5" xlink:href="#a"/></defs><path d="M373.216 228.593c-56.209 0-101.772 46.328-101.772 103.476s45.563 103.476 101.772 103.476 101.785-46.328 101.785-103.476-45.577-103.476-101.785-103.476zm0 170.491c-36.407 0-65.928-30-65.928-67.029s29.521-67.029 65.928-67.029 65.927 30 65.927 67.029-29.507 67.03-65.927 67.03z" fill="#ed6a5a"/><path d="M71.485 66.246a60.386 60.386 0 0 0 60.384-60.383H11.102a60.369 60.369 0 0 0 60.383 60.383z" fill="#f9a425"/><path d="M131.385 486.881h-74.52l-5.02-173.552h80.641z" fill="#1898df"/><path d="M240.111 486.884h-84.977l-.618-263.658h89.851z" fill="#ed6a5a"/><path d="M364.286 486.881h-97.932V142.247h106.577z" fill="#147cc2"/><path d="M203.093 139.606l-.484.98a4.034 4.034 0 0 0-.067 3.45 1.108 1.108 0 0 0 1.007.658s5.182 1.463 4.806.054-2.148-2.054-2.148-2.054l.725-2.457z" fill="#f9af89"/><path d="M214.439 114.368a55.488 55.488 0 0 1-4.819 5.947c-.644.7-1.356 1.49-2.134 2.242l1.235 1.168-5.6 15.881 3.826.645s8.981-12.284 11.478-17.438c.951-2.015-1.116-5.25-3.986-8.445z" fill="#118b8b"/><path d="M196.904 97.44l1.208 5.222-5.638.926.107-8.337z" fill="#f69b81"/><path d="M198.77 98.191a2.889 2.889 0 0 0 1.544-.577c1.557-2.994-1.544-10.162-1.544-10.162l-3.195-.9-3.558 2.886.4 5.007a4.078 4.078 0 0 0 2.148 3.222 8.012 8.012 0 0 0 4.205.524z" fill="#f9af89"/><path d="M192.983 92.191c.108-.859-.241-2.779.631-2.752.631.027 2.779-.161 3.49-.242 1.7-.215 4.672-1.262 4.35-3.866a3.477 3.477 0 0 0-2.4-2.5 3.432 3.432 0 0 0-2.47.282c-1.8.9-8.4 3.651-8.2 5.061a14.127 14.127 0 0 0 2.229 5.061 14.407 14.407 0 0 0 1.987 2.014z" fill="#1c2c57"/><path d="M191.278 92.595a1.277 1.277 0 0 1 1.611-.054c.55.349.725.953.389 1.329a1.277 1.277 0 0 1-1.611.054c-.564-.35-.738-.941-.389-1.329z" fill="#f9af89"/><path d="M195.384 102.34c10.928 0 10.833 16.324 10.833 16.324l-.282 22.607h-22.241l-.389-24.03c-.014 0 1.14-14.901 12.079-14.901z" fill="#ed6a5a"/><path d="M183.586 117.522s-13.035-1.127-15.948-6.779 21.748-19.6 21.748-19.6l2.269 2.792s-7.209 10.4-13.357 12.767c5.813-1.96 12.794-3.464 12.794-3.464l-2.739 11.867z" fill="#ed6a5a"/><path d="M189.386 91.13a8 8 0 0 1 5.652-3.343 29.4 29.4 0 0 0 5.531-.94.406.406 0 0 1 .537.456c-.443 2.578-1.423 2.9-6.242 4.658-2.859 1.182-3.41 2.47-3.41 2.47z" fill="#f69b81"/><path d="M209.16 218.018s2 1.853 6.565 3.02c1.007.255 2.081-.08 2.081 1.571h-5.531l-4.6-.792v.792h-2.484s-.7-4.068.765-4.591z" fill="#1c2c57"/><path d="M208.677 215.092l.483 2.927a2.816 2.816 0 0 1-3.048.107l-.175-.107.242-2.927z" fill="#f9af89"/><path d="M205.925 141.271l3.531 74.8h-4.175s-6.578-23.184-6.538-33.816a11.167 11.167 0 0 0-.4-3.128c-3.732-13.25-7.249-37.857-7.249-37.857h14.834zM190.218 218.018s2 1.853 6.565 3.02c1.007.255 2.081-.08 2.081 1.571h-5.531l-4.6-.792v.792h-2.484s-.7-4.068.765-4.591z" fill="#1c2c57"/><path d="M189.735 215.092l.484 2.927a2.818 2.818 0 0 1-3.048.107l-.174-.107.242-2.927z" fill="#f9af89"/><path d="M183.694 141.271s-2.014 20.526 1.128 34.233a14.749 14.749 0 0 1 .349 4.725c-1.947 20.862 1.208 35.844 1.208 35.844h3.719l11.021-74.8z" fill="#004060"/><path d="M1307.33 1015.539l1.168-2.349h5.424l1.249 2.067z" transform="translate(-1116.226 -912.314)" fill="url(#a)"/><path d="M198.944 102.944c6.793 0 21.963 14.713 19.466 19.869s-11.478 17.438-11.478 17.438l-3.826-.645 5.6-15.881-10.391-9.84c-.002-.013-6.164-10.941.629-10.941z" fill="#ed6a5a"/><g><path d="M1318.388 1049.461a3.544 3.544 0 0 1 .443-1.262c.014-.04.04-.081.054-.121l.255-19.734a29.046 29.046 0 0 0-1.087-7.464l-.363.564a30.235 30.235 0 0 1 .966 6.9z" transform="translate(-1112.678 -909.68)" fill="url(#b)"/></g><g><path d="M348.049 16.334l2.779-2.322a.907.907 0 0 0 .309-.846l-.121-.752a.912.912 0 0 0-.363-.591l-2.886-2.108a.907.907 0 0 0-1.128.04l-.336.3a.886.886 0 0 0-.309.6l-.429 4.484z" fill="#f9af89"/><path d="M345.551 15.139l-.51-3.168a.872.872 0 0 1 .926-1.007l1.4.094c.376.027 1.235 1.839 1.235 1.839s-1.114.967-1.732-.779a1.3 1.3 0 0 1-.685.134 3.949 3.949 0 0 1 1.181 3.745z" fill="#f69b81"/><path d="M348.626 16.387s-6.524 17.626-10.136 24.016-14.9 16.781-14.9 16.781l-5.249-14.243s10.135-4.94 15.143-10.216 11.76-18.271 11.76-18.271z" fill="#147cc2"/><g fill="#f9af89"><path d="M289.678 5.983l-1.624-3.249a.934.934 0 0 1 .054-.9l.4-.631a.938.938 0 0 1 .577-.4l3.491-.779a.9.9 0 0 1 1.02.5l.188.4a.867.867 0 0 1 .04.685l-1.4 4.282z"/><path d="M292.444 5.889l1.732-2.7a.875.875 0 0 0-.443-1.3l-1.316-.47c-.349-.121-1.866 1.195-1.866 1.195s.631 1.329 1.893-.013c.121.228.577.389.577.389a3.937 3.937 0 0 0-2.578 2.953z"/></g><path d="M270.979 119.313s-2.148 2.309-3.49 7.6c-.3 1.168.094 2.416-1.812 2.416v-6.4l.926-5.329h-.926v-2.873s4.712-.805 5.316.886c-.014 1.54-.014 3.7-.014 3.7z" fill="#1c2c57"/><path d="M274.36 118.991l-3.383.322a3.265 3.265 0 0 1-.121-3.531l.121-.2 3.383-1.195z" fill="#f9af89"/><path d="M304.459 72.77a67.819 67.819 0 0 0-2.835 24.63 6.75 6.75 0 0 1-5.544 7.169c-10.4 1.96-22.3 9.6-22.3 9.6v5.316s32.179-2.9 38.891-7.477 9.881-34.528 9.881-34.528z" fill="#1c2c57"/><path d="M319.616 40.538c7.29 4.833 3.96 34.528 3.96 34.528l-22.271-2.658 2.417-21.963s-10.135-12.35-12.069-21.385-2.9-23.278-2.9-23.278h4.108s4.591 18.566 7.491 23.278 12.552 11.37 12.552 11.37z" fill="#147cc2"/><path d="M1406.166 1001.816c.322-3.208 2.148-23.238-1.785-31.212.094-.175.174-.349.268-.524 4.417 8.269 2.215 29.829 1.974 32.085-.162-.121-.31-.229-.457-.349z" transform="translate(-1082.778 -927.233)" fill="url(#c)"/><path d="M348.895 136.121s2.322 2.148 7.6 3.49c1.168.3 2.417-.094 2.417 1.812h-6.4l-5.33-.926v.926h-2.873s-.806-4.712.886-5.316c1.539.014 3.7.014 3.7.014z" fill="#1c2c57"/><path d="M348.573 132.738l.322 3.383a3.265 3.265 0 0 1-3.531.121l-.2-.121-1.195-3.383z" fill="#f9af89"/><g><path d="M314.729 40.081l.966-4.148 4.766.537.349 4.94a.626.626 0 0 1-.094.094 13.37 13.37 0 0 0-5.987-1.423z" fill="#f69b81"/><path d="M313.091 27.825l1.249 6.524c.644-.121 1.128.537 1.087 1.168a1.109 1.109 0 0 1 .175.47 7.644 7.644 0 0 0 6.054.55c4.054-1.383.416-9.075.416-9.075z" fill="#f9af89"/><path d="M311.682 33.058a4.074 4.074 0 0 0-1.3-1.678c-2.645-1.7-.738-3.49-.054-4.081.752-.644.376-2.121 1.343-3.115 1.45-1.5 3.222-.4 4.242-.738s1.477-1.826 3.1-1.3 1.625 1.745 2.188 2.175 1.262-1.087 2.967.309c2.591 2.108-1.692 3.759-1.692 3.759a8.077 8.077 0 0 1-5.665.524 1.044 1.044 0 0 0-1.195.483c-.617 1.154.134 6.645.134 6.645l-1.195-.738a3.007 3.007 0 0 1-2.873-2.245z" fill="#1c2c57"/><path d="M314.26 33.249a1.02 1.02 0 1 0 1.758-1.034 1.02 1.02 0 1 0-1.758 1.034z" fill="#f9af89"/></g><path d="M323.576 75.052s16.123 15.344 17.559 19.1 7.477 38.837 7.477 38.837h-4.591s-9.2-14.955-12.015-26.688a12.074 12.074 0 0 0-8.175-8.713c-25.4-7.867-22.54-25.2-22.54-25.2z" fill="#004060"/><path d="M320.73 39.638l.108 2.255-7.384-1.477 1.544-2.457z" fill="#fff"/></g><g><path d="M3.409 383.795l-.014-22.567c.578 0 58.755-.443 137.436-29.628 72.429-26.863 177.65-84.32 267.57-205.5l16.806 13.921c-41.209 55.537-88.979 102.912-141.966 140.81a579.143 579.143 0 0 1-136.239 72.4C65.086 383.446 5.886 383.795 3.409 383.795z" fill="#f69129"/><path d="M.013 380.413l3.4 3.383 10.512-1.45-6.954-7.759z" fill="#f69129"/></g><g><path d="M95.535 310.005l10.243-.013c1.356.148 2.886.524 3.141 1.7a7.04 7.04 0 0 1 .148 1.557c-.362.429-13.948-.054-13.948-.054l-.054-.054c-1.448-1.712.47-3.136.47-3.136z" fill="#083a5d"/><path d="M109.069 313.268l-13.948-.054.121.537h13.841z" fill="#1c2c57"/><path d="M99.59 309.992l.926.013-.3 1.249h-.886zM101.563 309.992l.926.013-.282 1.249h-.9z" fill="#fff"/><path d="M94.837 306.596l.7 3.41a3.335 3.335 0 0 0 2.752.067l.161-.067.5-3.41z" fill="#f9af89"/><path d="M71.6 310.005l10.243-.013c1.356.148 2.886.524 3.128 1.7a7.04 7.04 0 0 1 .148 1.557c-.362.429-13.948-.054-13.948-.054l-.054-.054c-1.437-1.712.483-3.136.483-3.136z" fill="#1c2c57"/><path d="M85.118 313.268l-13.948-.054.121.537h13.854z" fill="#1c2c57"/><path d="M75.653 309.992l.913.013-.282 1.249h-.9zM77.627 309.992l.926.013-.3 1.249h-.886z" fill="#fff"/><path d="M72.043 306.596l-.443 3.41a3.305 3.305 0 0 0 2.739.067l.161-.067 1.638-3.41zM87.373 194.192l-7.45 4.86 2.309 5.893c.027.081.08.161.107.242.161-.013.322-.013.5-.013h.162a5.716 5.716 0 0 1 4.752 2.886 10.1 10.1 0 0 0 3.517-.913 3.642 3.642 0 0 0 1.665-1.262c.789-4.175-5.562-11.693-5.562-11.693zM98.059 193.561s1.034 9.786-1.047 16.029c.967.832 4.511 4.645 5.625-.282s-1.248-17.465-1.248-17.465z" fill="#f9af89"/><g fill="#1c2c57"><path d="M93.509 193.802l-1.866 1.436.832 1.423 2.041-1.114z"/><path d="M92.502 195.682c.242.429.3.859.121.953s-.51-.174-.739-.617-.282-.859-.107-.953c.148-.095.484.174.725.617z"/></g><path d="M116.76 184.553v-.054a19.882 19.882 0 0 0-2.2-3.262 17.588 17.588 0 0 1-2.094-2.846l-19.278 15.116 1.544 2.376 22.124-10.4a4.261 4.261 0 0 1-.096-.93z" fill="#004060"/><path d="M85.736 208.059l-.658 4.067h5.773l.416-4.994z" fill="#f69b81"/><path d="M102.315 218.946s7.705-2.457 10.122-5.746-1.665-21.358-1.665-21.358l.524-3.249a3.018 3.018 0 0 0-2.953-3.5l-2.054-.013a1.173 1.173 0 0 0-1.087 1.651l2.712 6.095s2.027 13.68-.819 14.713a32.262 32.262 0 0 1-7.236 1.5z" fill="#f9af89"/><path d="M87.83 208.059l-1.745-3.88 1.141-.712a2.131 2.131 0 0 0 .886-2.51l-1.248-3.665s3.544-.43 3.437-3.746c0-1.7-2.336-1.7-2.336-1.7a3.417 3.417 0 0 1-2.873 1.7c-.94-.121-3.49.228-5.222 3.249-1.168 2.027-.658 5.209.362 7.585.913 2.134 3.222 3.329 5.518 3.678z" fill="#083a5d"/><path d="M80.003 244.44a143.19 143.19 0 0 0 2.443 19.533 17.451 17.451 0 0 1-.6 8.981c-4.6 13.666-11.048 34.219-11.048 34.219h5.732s13-24.285 16.351-36.34 3.92-15.868 3.92-15.868l-3.987-10.511H80.007z" fill="#1c2c57"/><path d="M85.132 202.367a1.646 1.646 0 0 0 .94 1.812c.725.389 1.49.2 1.691-.4a1.647 1.647 0 0 0-.94-1.812 1.111 1.111 0 0 0-1.691.4z" fill="#f9af89"/><path d="M98.703 244.44h-18.7v-24a10.171 10.171 0 0 1 9.236-10.135l13.008-1.571s1.53 2.336 5.786 7.786a43.758 43.758 0 0 1-11.048 4.618z" fill="#1898df"/><path d="M80.003 244.44s2.645 9.558 12.391 20.284a12.525 12.525 0 0 1 3.638 9.746l-2.014 32.7h5.826s7.088-27.158 5.558-40.542a61.342 61.342 0 0 0-6.7-22.177h-18.7z" fill="#004060"/><path d="M113.444 182.607c1.181 1.987 2.658 3.3 3.316 2.913s.215-2.309-.966-4.309-2.658-3.3-3.316-2.913-.216 2.322.966 4.309z" fill="#58c3c4"/><path d="M97.254 189.574l.175.081a2.579 2.579 0 0 0 1.946.121l.107-.04a3.442 3.442 0 0 0 2.215-2.255.654.654 0 0 0-.752-.832l-1.3.268a1.947 1.947 0 0 0-1.235.832z" fill="#f9af89"/></g><g><path d="M.013 380.402L0 357.835c.578 0 58.755-.443 137.435-29.628 72.428-26.863 177.65-84.32 267.57-205.5l16.806 13.921c-41.209 55.537-88.979 102.912-141.966 140.81a579.125 579.125 0 0 1-136.239 72.4C61.699 380.053 2.501 380.402.013 380.402z" fill="#ffcf52"/></g><g><path d="M384.263 124.426l48.4 30.715 11.4-69.284z" fill="#f69129"/><path d="M380.545 122.641l48.4 30.715 11.4-69.284z" fill="#ffcf52"/><path d="M440.338 84.072l3.718 1.786-.993 6-3.933-.443z" fill="#f69129"/></g><g><path d="M45.363 483.793s.993 1.369 5.665 2.564c1.033.268 2.134.443 2.134 2.134h-4.618l-4.712-.819v.819h-2.551s-.712-4.162.778-4.7z" fill="#1c2c57"/><path d="M45.604 480.8l-.242 2.994a2.877 2.877 0 0 1-3.114.107l-.175-.107V480.8z" fill="#f9af89"/><path d="M21.708 484.384s.993 1.37 5.665 2.564c1.034.269 2.134.443 2.134 2.134h-4.6l-4.712-.819v.819h-2.551s-.711-4.161.779-4.7z" fill="#1c2c57"/><path d="M21.949 481.39l-.242 2.994a2.878 2.878 0 0 1-3.115.107l-.174-.107v-2.994z" fill="#f9af89"/><path d="M47.483 407.273l-1.154 75.15h-5.477s-8.337-60.665-6.551-75.15 13.182 0 13.182 0z" fill="#1c2c57"/><path d="M41.696 407.261s-1.906 23.09-6.283 35.857-12.283 39.294-12.283 39.294h-5.665s9.464-55.417 7.3-75.164h16.928z" fill="#083a5d"/><path d="M46.637 369.013s6.753 15.734 8.458 15.734c1.369 0-.51-12.847-.51-12.847h5.652s7.1 22.016 1.45 26.043-18.069-11.384-18.069-11.384z" fill="#cecece"/><path d="M26.513 409.26l2.041 5.061c.98 1.987 4.6 2.041 7.008 1.41a.5.5 0 0 0 .242-.819 67.841 67.841 0 0 0-5.933-5.987z" fill="#f9af89"/><path d="M43.617 365.764s3.531 2.39 3.531 5.128v36.367H26.5v-34s.429-7.558 7.813-7.558 9.304.063 9.304.063z" fill="#cecece"/><path d="M46.798 407.273v-32.662l.684.027v32.635z" fill="#fff"/><path d="M34.045 358.556l1.664 8.417a5.2 5.2 0 0 0 4.31 1.141c2.524-.5 2.161-2.323 2.161-2.323l-1.061-5.4-3.933-.242z" fill="#f69b81"/><path d="M41.751 361.938a3.187 3.187 0 0 0 1.785-.859c1.544-4.014-2.927-13.156-2.927-13.156l-7.853 3.074 1.02 6.511a5.507 5.507 0 0 0 2.913 4.054 8.8 8.8 0 0 0 5.062.376z" fill="#f9af89"/><path d="M36.609 350.407a17.59 17.59 0 0 0 5.544-1.1c2.739-1.074.309-3.839.309-3.839a11.31 11.31 0 0 1-5.759 1.557c-2.6.121-3.369-.228-4.819.953-1.973 1.611-.644 5.477-.644 5.477l2.873 8.176.456-.094s-.873-5.021-1.208-6.726c.322-.873.832-.967 1.275-.859a1.279 1.279 0 0 1 .9 1.02l1.732 8.739s6.028 1.3 7.357.577-.9-6.994-.9-6.994a2.635 2.635 0 0 0-2.752 1.275c-.98 1.651-2.779.5-2.779.5z" fill="#083a5d"/><path d="M59.148 371.9l-.2-1.088c-.443-2.4-2.739-5.4-5.048-6.175h-2.4l.738 5.128 3.383 2.135h3.531zM33.874 353.884a1.442 1.442 0 0 1 1.6 1.074 1.246 1.246 0 0 1-.618 1.7 1.442 1.442 0 0 1-1.6-1.074 1.236 1.236 0 0 1 .618-1.7z" fill="#f9af89"/><path d="M53.228 369.187l4.672 2.7s-2.927-.027-2.98 0l-4.94-4.135s.362-.725 1.477-.107a5.89 5.89 0 0 1 1.771 1.542z" fill="#f9af89"/><path d="M28.688 367.98s-11.679 12.968-11.679 20.741 9.478 21.466 9.478 21.466l4.685-1.369s-4.229-16.955-4.229-21.466 8.672-11.116 8.672-11.116" fill="#cecece"/><path d="M27.292 387.351c0 3.88 3.437 18.083 4.242 21.385-.242.067-.335.081-.7.175-.993-4.081-4.242-17.747-4.242-21.56 0-4.631 8.444-11.115 8.807-11.4l.416.55c-.065.071-8.523 6.568-8.523 10.85z" fill="#fff"/><g><path d="M50.1 360.704a12.392 12.392 0 0 0 2.134 9.062 1.3 1.3 0 0 0 .873.483 3.49 3.49 0 0 0 1.611-.269 1.5 1.5 0 0 0 .98-.7.645.645 0 0 0-.067-.671c-.631-.939-2.578-4.161-1.692-7.008a5.058 5.058 0 0 0-3.839-.897z" fill="#118b8b"/><path d="M55.148 369.805a.958.958 0 0 0 .55-.524.644.644 0 0 0-.067-.671c-.631-.94-2.577-4.161-1.691-7.007a4.282 4.282 0 0 0-1.839-.846c-.093 3.128.577 5.21 3.047 9.048z" fill="#006769"/><path d="M52.865 364.852c.147.725.5 1.249.778 1.195s.389-.685.242-1.41-.5-1.249-.779-1.195-.389.686-.241 1.41z" fill="#1c2c57"/><path d="M53.053 363.456l.3-.067-.013.148-.2.08z" fill="#1c2c57"/><path d="M53.576 366.047l.363-.067-.4-.067z" fill="#ee4266"/><path d="M53.107 364.799c.148.725.5 1.248.779 1.195s.39-.685.242-1.41-.5-1.249-.778-1.195-.391.685-.243 1.41z" fill="#58c3c4"/><path d="M48.838 356.475h-.55a1.878 1.878 0 0 0-1.92 1.839v1.45a1.884 1.884 0 0 0 1.92 1.826h.55z" fill="#118b8b"/><path d="M65.752 357.912c0 3.973-.913 7.2-2.041 7.2s-2.041-3.222-2.041-7.2.913-7.2 2.041-7.2 2.041 3.226 2.041 7.2z" fill="#1c2c57"/><path d="M61.591 355.267l1.611 1.047v2.322l-1.665 1.5-.577-3.021z" fill="#fff"/><path d="M61.672 357.912c0-3.343.645-6.135 1.517-6.941a32.847 32.847 0 0 1-14.673 5.558v5.074s10.713-.6 14.673 3.262c-.872-.819-1.517-3.611-1.517-6.953z" fill="#006769"/><path d="M63.417 357.468c0 .644-.094 1.168-.215 1.168s-.215-.524-.215-1.168.094-1.168.215-1.168.215.524.215 1.168z" fill="#58c3c4"/></g><path d="M56.544 368.184a5.336 5.336 0 0 1-2.6.43c-1.356 0-1.973-1.665-2.2-2.578-.081-.322-.148-.778.242-.98l2.188-.309z" fill="#f9af89"/></g><g><path d="M440.15 498.279l-59.336-184.453h-4.591l59.323 184.453zM398.413 498.279l-59.336-184.453h-4.591l59.336 184.453z" fill="#ffcf52"/><path d="M401.728 378.989v3.732l-43.254-.027-.738-3.732zM392.788 354.677v3.732l-43.254-.027-.738-3.732zM385.392 330.352v3.745l-43.24-.027-.738-3.732zM409.596 403.609v3.745l-43.24-.027-.738-3.745zM416.992 428.23v3.745l-43.24-.027-.738-3.745zM424.645 453.817l1.745 3.745-43.24-.027-.738-3.745zM432.753 479.404l1.745 3.732-43.24-.013-.738-3.746z" fill="#ffcf52"/><path d="M277.136 498.279l59.323-184.453h-4.591l-59.336 184.453z" fill="#004060"/><g><path d="M318.859 498.279l59.336-184.453h-4.591l-59.336 184.453z" fill="#004060"/></g><g><path d="M310.952 378.989v3.732l43.254-.027.738-3.732z" fill="#004060"/></g><g><path d="M319.893 354.677v3.732l43.254-.027.739-3.732z" fill="#004060"/></g><g><path d="M327.29 330.352v3.745l43.24-.027.739-3.732z" fill="#004060"/></g><g><path d="M303.072 403.609v3.745l43.254-.027.738-3.745z" fill="#004060"/></g><g><path d="M295.688 428.23v3.745l43.24-.027.738-3.745z" fill="#004060"/></g><g><path d="M288.036 453.817l-1.745 3.745 43.24-.027.738-3.745z" fill="#004060"/></g><g><path d="M279.928 479.404l-1.745 3.732 43.24-.013.738-3.746z" fill="#004060"/></g></g><g><path d="M308.244 332.462l2.4 6.376a2.109 2.109 0 0 1-.685 2.484 7.09 7.09 0 0 1-1.262.577c-.443-.094-3.222-8.7-3.222-8.7l.027-.054a2.3 2.3 0 0 1 2.742-.683z" fill="#006769"/><path d="M308.701 341.9l-3.222-8.7-.416.242 3.235 8.632z" fill="#1c2c57"/><path d="M309.197 334.986l.215.577-1.114.215-.2-.564zM309.667 336.221l.215.577-1.114.2-.215-.55z" fill="#fff"/><path d="M310.916 330.959l-2.672 1.5a1.734 1.734 0 0 0 .591 1.732l.094.081 2.953-.765z" fill="#f9af89"/><path d="M332.248 290.726a15.4 15.4 0 0 0-3.329 7.88c-.456 3.343.792 8.645.94 12.794a10.717 10.717 0 0 1-4.6 9.142l-14.338 10.417.967 2.551s19.627-2.94 24.768-11.733 6.376-28.688 6.376-28.688z" fill="#1c2c57"/><path d="M320.837 279.892l-7.37 16.472s-3.034.349-4.349 1.517c-.685.6-.658 1.826-.47 2.846a1.017 1.017 0 0 0 1.665.591 7.127 7.127 0 0 1 2.537-1.611 3.085 3.085 0 0 0 2.363-1.6l10.579-16.593zM358.023 246.777l3.772-3.236-2.927-15.962-4.551-2.322a1.323 1.323 0 0 1 1.611-.51 4.094 4.094 0 0 0 2.067.148s.846-1.047-.765-1.759c-.9-.6-1.517 0-4.135-.107 0-.4 3.463-1.37 3.463-1.37 1.074-.349 3.839 1.786 3.839 1.786a1.848 1.848 0 0 1 .349.859l.43 2.967s5.853 16.069 5.853 17.774-3.276 4.068-3.276 4.068z" fill="#f9af89"/><path d="M337.708 292.377s-2.269 2.739-.913 9.1c.873 4.068 4.7 9.169 7.263 12.7 1.839 2.524 1.88 5.705 1.329 8.78-2.108 11.693 1.262 25.95 1.262 25.95h2.725s4.095-20.915 5.3-35.6a42.465 42.465 0 0 0-4.7-23.184z" fill="#004060"/><path fill="#f9a425" d="M352.799 224.673l.331-2.258 8.568 1.257-.332 2.258z"/><path fill="#fff" d="M361.038 225.943l.33-2.258.785.115-.331 2.258z"/><path d="M361.715 225.994c.631.081 1.155.04 1.3-.98.161-1.114-.349-1.222-.966-1.316z" fill="#1c2c57"/><path d="M352.828 224.691l-1.665-.993.121-.832 1.879-.443z" fill="#fff"/><path d="M351.163 223.695l-.724-.524.846-.309z" fill="#004060"/><path fill="#f58a27" d="M352.959 224.32l.077-.518 8.273 1.221-.077.519zM352.94 223.289l.075-.519 8.277 1.201-.076.519z"/><path d="M331.013 260.064c-4.873 3.585-10.605 20.795-10.605 20.795l4.282 2.4 6.967-9.558s.671 11.062-.993 19.546c.752 3.182 4.376 2.819 10.229 1.719a29.144 29.144 0 0 0 9.693-3.638s.255-15.344 1.007-23.479-.739-9.008 1.316-8.739c4.578-2.6 12.082-10.968 12.082-10.968l-6.967-1.356-15 8.793a63.309 63.309 0 0 0-12.011 4.485z" fill="#cecece"/><path d="M339.51 239.712l3.625 3.571a6.255 6.255 0 0 1 1.718 5.826l-.43 1.906z" fill="#f9af89"/><path d="M335.134 238.356c-8.793 0-5.047 16.875-5.047 16.875s1.571 10.941 5.047 15.331c3.021 3.8 8.981 2.658 11.814.832a10.571 10.571 0 0 1 4.564-1.678c2.39-.282 5.249-1.342 5.249-5.665 0-4.068-4.86-7.209-8.055-9.451a10.512 10.512 0 0 1-4.135-6.122c-1.033-4.175-3.53-10.122-9.437-10.122z" fill="#1c2c57"/><g><path d="M347.122 351.929l6.82-.013c.9.121 1.92.47 2.081 1.517a7.591 7.591 0 0 1 .094 1.383c-.242.376-9.276-.054-9.276-.054l-.04-.04a2.267 2.267 0 0 1 .321-2.793z" fill="#006769"/><path d="M356.116 354.828l-9.276-.054.08.483h9.209z" fill="#004060"/><path d="M349.821 351.915l.6.013-.188 1.114h-.59zM351.131 351.915l.6.013-.188 1.114h-.591z" fill="#fff"/><path d="M346.652 348.895l.47 3.034a1.7 1.7 0 0 0 1.826.054l.107-.067.322-3.034h-2.725z" fill="#f9af89"/></g><path d="M355.942 224.754a1.307 1.307 0 0 0-1.611.51l3.02 1.544c.04-.013.081-.04.121-.054a14.445 14.445 0 0 1 2-.725 23.888 23.888 0 0 0-3.53-1.275z" fill="#f9af89"/></g></svg>