<svg xmlns="http://www.w3.org/2000/svg" width="475" height="431.838" viewBox="0 0 475 431.838"><path d="M386.604 186.4a87.88 87.88 0 1 0 87.88 87.88 87.875 87.875 0 0 0-87.88-87.88zm0 144.806a56.926 56.926 0 1 1 56.926-56.926 56.929 56.929 0 0 1-56.926 56.926z" fill="#ed6a5a"/><path d="M360.507 80.678a42.347 42.347 0 0 0-42.349 42.349h84.7a42.352 42.352 0 0 0-42.351-42.349z" fill="#1898df"/><path d="M40.608 395.287a40.616 40.616 0 0 0 40.616-40.616H0a40.6 40.6 0 0 0 40.608 40.616z" fill="#f9a425"/><path d="M197.817 2.236v339.532H339.99s-15.168-213.951-78.675-293.094C218.958-4.111 197.817 2.236 197.817 2.236z" fill="#ed6a5a"/><g fill="#cc5b4d"><path d="M244.022 52.831a11.5 11.5 0 0 1-1.258-2.832h-44.939v4.831h47.472c-.433-.666-.867-1.324-1.275-1.999zM251.66 63.993h-53.844v4.831h57.426c-1.191-1.607-2.391-3.215-3.582-4.831zM261.756 77.937h-63.948v4.831h66.988q-1.436-2.449-3.04-4.831zM269.386 91.94h-71.578v4.831h73.244a51.58 51.58 0 0 0-1.666-4.831z"/></g><g fill="#f9a425"><path d="M302.481 173.18a11.024 11.024 0 0 1-2.849-2.832H197.817v4.831h107.538c-.966-.661-1.941-1.324-2.874-1.999zM319.791 184.35H197.817v4.831h130.1c-2.71-1.607-5.428-3.215-8.126-4.831zM342.673 198.295H197.817v4.831h151.761q-3.286-2.449-6.905-4.831zM359.957 212.297h-162.14v4.831H363.73a39.963 39.963 0 0 0-3.773-4.831z"/></g><path d="M263.473 48.674C221.116-4.112 197.817.074 197.817.074v9.954c7.513 6.689 26.914 26.472 36.676 38.642 63.507 79.133 67.9 293.093 67.9 293.093h40.825s-16.239-213.947-79.745-293.089z" fill="#cc5b4d"/><path fill="#147cc2" d="M100.924 124.867h118.592v293.968H100.924z"/><path fill="#1898df" d="M47.663 340.01h78.767v78.825H47.663z"/><g fill="#1898df"><path d="M193.086 284.092h12.486v15.452h-12.486zM157.042 251.339h12.486v15.102h-12.486zM157.042 284.092h12.486v15.452h-12.486zM120.866 251.339h12.486v15.102h-12.486zM120.866 284.092h12.486v15.452h-12.486z"/><g><path d="M193.086 318.169h12.486v15.102h-12.486zM157.042 318.169h12.486v15.102h-12.486zM157.042 351.605h12.486v15.102h-12.486zM120.866 318.169h12.486v15.102h-12.486z"/></g></g><g fill="#fff"><path d="M61.416 354.821h16.268v4.831H61.416zM96.709 354.821h16.651v4.831H96.709zM61.416 368.823h16.268v4.831H61.416zM96.709 368.823h16.651v4.831H96.709zM61.416 382.768h16.268v4.831H61.416zM96.709 382.768h16.651v4.831H96.709zM61.416 396.762h16.268v4.831H61.416zM96.709 396.762h16.651v4.831H96.709z"/></g><path fill="#1898df" d="M188.129 252.172h112.794v166.663H188.129z"/><g fill="#fff"><path d="M196.742 265.233h23.948v6.506h-23.948zM248.678 265.233h24.506v6.506h-24.506zM196.742 284.075h23.948v6.506h-23.948zM248.678 284.075h24.506v6.506h-24.506zM196.742 302.859h23.948v6.506h-23.948zM248.678 302.859h24.506v6.506h-24.506zM196.742 321.709h23.948v6.506h-23.948zM248.678 321.709h24.506v6.506h-24.506z"/></g><g fill="#fff"><path d="M196.742 340.302h23.948v6.506h-23.948zM248.678 340.302h24.506v6.506h-24.506zM196.742 359.152h23.948v6.506h-23.948zM248.678 359.152h24.506v6.506h-24.506zM196.742 377.928h23.948v6.506h-23.948zM248.678 377.928h24.506v6.506h-24.506zM196.742 396.778h23.948v6.506h-23.948zM248.678 396.778h24.506v6.506h-24.506z"/></g><path fill="#147cc2" d="M281.015 141.943H383.38v276.892H281.015z"/><g fill="#1898df"><path d="M293.976 337.286h76.443v4.831h-76.443zM293.976 351.288h76.443v4.831h-76.443zM293.976 365.233h76.443v4.831h-76.443zM293.976 379.235h76.443v4.831h-76.443z"/></g><g fill="#1898df"><path d="M293.976 163.959h23.948v4.831h-23.948zM345.912 163.959h24.506v4.831h-24.506zM293.976 177.953h23.948v4.831h-23.948zM345.912 177.953h24.506v4.831h-24.506zM293.976 191.906h23.948v4.831h-23.948zM345.912 191.906h24.506v4.831h-24.506zM293.976 205.9h23.948v4.831h-23.948zM345.912 205.9h24.506v4.831h-24.506z"/></g><g fill="#1898df"><path d="M293.976 219.711h23.948v4.831h-23.948zM345.912 219.711h24.506v4.831h-24.506zM293.976 233.713h23.948v4.831h-23.948zM345.912 233.713h24.506v4.831h-24.506zM293.976 247.658h23.948v4.831h-23.948zM345.912 247.658h24.506v4.831h-24.506zM293.976 261.652h23.948v4.831h-23.948zM345.912 261.652h24.506v4.831h-24.506z"/></g><path fill="#1898df" d="M361.581 304.175h92.003v116.226h-92.003z"/><g fill="#fff"><path d="M431.818 319.552h9.454v15.102h-9.454zM431.818 352.305h9.454v15.452h-9.454zM404.537 319.552h9.454v15.102h-9.454zM404.537 352.305h9.454v15.452h-9.454zM377.149 319.552h9.454v15.102h-9.454zM377.149 352.305h9.454v15.452h-9.454zM431.818 386.382h9.454v15.102h-9.454zM377.149 386.382h9.454v15.102h-9.454z"/></g><g fill="#1898df"><path d="M193.086 147.941h12.486v15.102h-12.486zM193.086 180.694h12.486v15.452h-12.486zM157.042 147.941h12.486v15.102h-12.486zM157.042 180.694h12.486v15.452h-12.486zM120.866 147.941h12.486v15.102h-12.486zM120.866 180.694h12.486v15.452h-12.486z"/><g><path d="M193.086 214.771h12.486v15.102h-12.486zM157.042 214.771h12.486v15.102h-12.486zM120.866 214.771h12.486v15.102h-12.486z"/></g></g><path d="M390.118 191.256l.625 3.715a3.585 3.585 0 0 1-3.873.133l-.217-.133-.916-3.715z" fill="#f9af89"/><path d="M360.364 105.36c3.3 10.887 14.369 27.6 14.369 27.6l-8.738-3.582-6.181-14.277c.001.005-2.748-20.616.55-9.741z" fill="#a1d6c4"/><path d="M384.121 149.075l6.9 42.515h-6.134s-13.769-38.251-15.21-49.5c0-6.372 13.919 0 13.919 0z" fill="#1c2c57"/><path d="M361.29 88.183l-2.282 5.923-4.957-3.583 3.349-6.98z" fill="#f69b81"/><path d="M363.156 89.166a3.342 3.342 0 0 0 1.932-.05c2.874-2.741 2.174-11.895 2.174-11.895l-3.207-2.216-5.056 1.849-1.466 5.731a4.8 4.8 0 0 0 1.158 4.406 9.4 9.4 0 0 0 4.465 2.175z" fill="#f9af89"/><path d="M359.89 78.778a1.981 1.981 0 0 1 2.482-.983 16.236 16.236 0 0 0 2.374.725c1.983.416 5.681.383 6.314-2.641s-3.29-2.757-3.29-2.757l-5.214.358a9.618 9.618 0 0 1-4.5-.825c-1.25-.541-2.366.616-2.632 1.391-.591 1.708.025 4.615.541 6.481a9.458 9.458 0 0 0 1.441 3.007z" fill="#1c2c57"/><path d="M356.958 80.079a1.53 1.53 0 0 1 1.816.55c.475.6.441 1.333-.083 1.633a1.53 1.53 0 0 1-1.816-.55c-.475-.609-.442-1.342.083-1.633z" fill="#f9af89"/><path d="M390.86 194.579s.017 3.948 7.947 6.314c1.624.483 1.1.966 1.4 1.649h-9.121l-3.576-4.017-1.108.958-2.574-2.532s.45-3.665 2.407-3.7c1.618.562 4.625 1.328 4.625 1.328z" fill="#1c2c57"/><path d="M368.328 190.098l-1.483 3.415a3.585 3.585 0 0 1-3.707-1.125l-.167-.192 1.2-3.515z" fill="#f9af89"/><path d="M360.09 92.448s.633-.975-4.973-3.873c-8.446 8.446-11.229 40.808-11.229 40.808h22.1c.749-18.468-5.898-36.935-5.898-36.935z" fill="#ed6a5a"/><path d="M381.93 128.508a.98.98 0 0 0-.458-1.066l-3.6-2.091a4.189 4.189 0 0 0-2.949-.475l-3.907.158-.508.616-.808 3.449c.783-.192 1.241-.308 1.241-.308l2.482.067s4.681 4.348 7 .566c.1 4.023 1.274 3.715 1.274 3.715z" fill="#f9af89"/><path d="M343.889 129.382l-.333 2.741c-.008.033-.008.075-.017.108a10.811 10.811 0 0 0 7.922 11.5 97.284 97.284 0 0 0 22.757 4.023c-8.338 10.7-10.637 40.733-10.637 40.733l5.373 1.949 20.741-49.4a5.464 5.464 0 0 0-3.9-7.455l-19.808-4.215h-22.1z" fill="#004060"/><path d="M357.707 103.018a44.4 44.4 0 0 0-6.539 7.63 2.882 2.882 0 0 0 .258 3.424c4.606 5.3 21 10.4 21 10.4l-1.058 5.981s-23.274-4.573-31.512-12.845c-8.455-8.48 13.411-26.206 13.411-26.206" fill="#ed6a5a"/><g fill="#fff"><path d="M351.452 110.824a2.543 2.543 0 0 0 .233 3.032c2.1 2.416 7.7 5 12.586 6.872-.008.3.008.317 0 .675-5.131-1.924-10.8-4.481-13.086-7.122a3.182 3.182 0 0 1-.292-3.807 44.7 44.7 0 0 1 6.6-7.7l.441.483a43.925 43.925 0 0 0-6.482 7.567zM344.705 120.919c8.938 4.823 22.032 8.28 26.705 9.254a4.109 4.109 0 0 1-.142.633c-4.5-.916-17.476-4.248-26.664-9.129.026-.258.059-.516.101-.758z"/></g><g><path d="M390.627 135.721l6.88-24.623-1.258-.358-6.572 23.482-19.775-3.432-.225 1.291z" fill="#1898df"/></g><path d="M367.17 192.764s-.308 3.982 7.622 6.347c1.624.483 1.1.966 1.4 1.649h-9.121l-3.573-4.015-1.108.958-2.574-2.532s1.2-3.665 3.165-3.69c1.615.55 4.189 1.283 4.189 1.283z" fill="#1c2c57"/><g><path d="M200.082 98.195l-2.266-1.424 7.064-3.149-2.924-6.664a9.647 9.647 0 0 0-8.18-5.148h-14.543a9.636 9.636 0 0 0-8.18 5.148l-2.924 6.664 7.064 3.149-2.266 1.424-1.258 10.82 14.835-.233 14.835.233z" fill="#ffd774"/><path d="M204.88 93.622l1.458 4.823a9.306 9.306 0 0 1-2.94 9.779l-6.622 5.173-2.124-5.789 3.657-3.415a3.713 3.713 0 0 0 .908-4.265l-1.408-3.149zM175.983 124.643l-5.9.8-1.13-1.254.575-2.257 5.673-.816z" fill="#f9af89"/><path d="M170.086 125.442l-7.422.916s-7.305.95-6.247-3.074c1.016-3.89 7.572-2.166 7.572-2.166l6.1.733a3.079 3.079 0 0 0-.083 3.457z" fill="#118b8b"/><path d="M156.426 123.285a3.448 3.448 0 0 1 3.132-2.441v5.539c-1.842-.208-3.708-.933-3.132-3.098z" fill="#fff"/><path fill="#f9af89" d="M166.796 122.26v2.382"/><path fill="#fff" d="M166.488 122.26h.608v2.382h-.608z"/><path fill="#f9af89" d="M165.288 122.26v2.382"/><path fill="#fff" d="M164.98 122.26h.608v2.382h-.608z"/><path d="M168.196 93.622l-1.458 4.815a9.322 9.322 0 0 0 2.94 9.779l6.622 5.173 2.124-5.789-3.657-3.415a3.727 3.727 0 0 1-.908-4.265l1.408-3.149z" fill="#f9af89"/><g><path d="M197.65 125.084l6 .358 1.133-1.249-.575-2.257-5.673-.816z" fill="#f9af89"/><path d="M203.647 125.442l7.422.916s7.305.95 6.247-3.074c-1.016-3.89-7.572-2.166-7.572-2.166l-6.1.733a3.079 3.079 0 0 1 .083 3.457z" fill="#118b8b"/><path d="M217.316 123.285a3.448 3.448 0 0 0-3.132-2.441v5.539c1.833-.208 3.698-.933 3.132-3.098z" fill="#fff"/><path fill="#f9af89" d="M206.937 122.26v2.382"/><path fill="#fff" d="M206.637 122.26h.608v2.382h-.608z"/><g><path fill="#f9af89" d="M208.445 122.26v2.382"/><path fill="#fff" d="M208.137 122.26h.608v2.382h-.608z"/></g></g><g><path fill="#ed6a5a" d="M175.293 100.669h24.456v14.636h-24.456z"/><path fill="#bfaac2" d="M175.293 114.696h24.456v1.216h-24.456z"/><path d="M186.538 106.642a.975.975 0 1 0 .975-.975.976.976 0 0 0-.975.975z" fill="#fff"/></g><path d="M217.25 111.398c4.881 8.7-44.323 14.044-44.323 14.044l-.833-3.873s39.125-20.9 45.156-10.171z" fill="#1c2c57"/><path d="M156.484 111.398c-4.148 9.079 44.723 14.519 44.723 14.519l.367-4.356s-40.184-20.892-45.09-10.163z" fill="#004060"/><g><path d="M189.079 81.776c-.45-1.374-1.274-5.439-1.274-5.439l-5.24 1.025v4.44a7 7 0 0 0 3.2 1.241 5.185 5.185 0 0 0 3.314-1.267z" fill="#f69b81"/><path d="M189.078 69.132l-.983-5.814-10.062 1.191.608 6.7s.775 8.3 6.131 7.305c5.801-1.069 4.565-9.457 4.306-9.382z" fill="#f9af89"/><path d="M191.427 68.341a3.97 3.97 0 0 1 .425-2.416c1.741-2.84-.891-3.673-1.808-3.915-1.016-.275-1.341-1.849-2.7-2.357-2.082-.766-3.249 1.091-4.382 1.233s-2.241-1.058-3.549.183-.75 2.407-1.083 3.082-1.7-.458-2.691 1.649a2.116 2.116 0 0 0 1.1 3.074 4.481 4.481 0 0 0 3.848.092 17.19 17.19 0 0 0 4.032-2.449c.392-.317 3.465-.533 3.715-.092.866 1.474.933 6.4.933 6.4l.9-1.258a3.171 3.171 0 0 0 1.26-3.226z" fill="#1c2c57"/><path d="M188.129 69.857c-.267.7-.108 1.416.358 1.6s1.066-.242 1.333-.941.108-1.416-.358-1.6-1.058.241-1.333.941z" fill="#f9af89"/></g></g><g><path d="M85.356 336.987l10.854-.017c1.441.15 3.049.558 3.324 1.808a7.189 7.189 0 0 1 .158 1.658c-.383.45-14.777-.058-14.777-.058l-.067-.05c-1.524-1.834.508-3.341.508-3.341z" fill="#1c2c57"/><path d="M99.692 340.444l-14.777-.067.125.575h14.669z" fill="#1c2c57"/><path d="M89.649 336.978l.975.008-.308 1.324h-.941zM91.745 336.978l.983.008-.308 1.324h-.95z" fill="#fff"/><path d="M84.606 333.371l.741 3.615a3.507 3.507 0 0 0 2.907.067l.167-.075.525-3.615h-4.34z" fill="#f9af89"/><path d="M59.983 336.987l10.854-.017c1.441.15 3.057.558 3.324 1.808a7.19 7.19 0 0 1 .158 1.658c-.383.45-14.777-.058-14.777-.058l-.067-.05c-1.524-1.834.508-3.341.508-3.341z" fill="#1c2c57"/><path d="M74.319 340.444l-14.777-.067.125.575h14.665z" fill="#1c2c57"/><path d="M64.281 336.978l.975.008-.308 1.324h-.941zM66.372 336.978l.983.008-.308 1.324h-.95z" fill="#fff"/><path d="M60.445 333.371l-.475 3.615a3.507 3.507 0 0 0 2.907.067l.167-.075 1.741-3.615h-4.34zM76.651 211.764l-8.938 5.831 2.757 7.064c.042.1.092.192.133.292.2-.017.391-.025.591-.025h.192a6.9 6.9 0 0 1 5.7 3.457 11.788 11.788 0 0 0 4.223-1.1 4.429 4.429 0 0 0 1.991-1.508c.956-5.006-6.649-14.011-6.649-14.011zM88.021 213.597s1.091 10.379-1.108 16.985c1.025.891 4.781 4.915 5.964-.308s-1.324-18.509-1.324-18.509z" fill="#f9af89"/><path d="M82.665 212.863l-2.107 1.349.75 1.574 2.257-1z" fill="#006769"/><path d="M81.424 214.746c.208.483.225.933.033 1.025s-.516-.233-.733-.716-.225-.933-.033-1.025.517.241.733.716zM108.038 205.211c0-.017.008-.042.008-.058a20.727 20.727 0 0 0-2.032-3.648 18.253 18.253 0 0 1-1.949-3.19L82.34 212.53l1.408 2.657 24.3-8.98a6.694 6.694 0 0 1-.01-.996z" fill="#1c2c57"/><path d="M74.677 228.382l-.775 4.881h6.905l.5-5.981z" fill="#f69b81"/><path d="M92.528 240.493s8.163-2.6 10.72-6.1-1.774-22.624-1.774-22.624l.558-3.44a3.2 3.2 0 0 0-3.132-3.715l-2.182-.017a1.246 1.246 0 0 0-1.15 1.758l2.865 6.456s2.149 14.486-.866 15.593a33.939 33.939 0 0 1-7.663 1.591z" fill="#f9af89"/><path d="M77.193 228.378l-2.1-4.656 1.366-.858a2.565 2.565 0 0 0 1.066-3l-1.491-4.39s4.257-.516 4.123-4.481c0-2.041-2.807-2.049-2.807-2.049a4.084 4.084 0 0 1-3.44 2.041c-1.116-.142-4.19.275-6.264 3.89-1.391 2.432-.783 6.239.433 9.1 1.083 2.566 3.865 3.99 6.614 4.415h2.5zM68.888 267.507a153.332 153.332 0 0 0 2.582 20.691 18.582 18.582 0 0 1-.633 9.521c-4.873 14.477-11.712 36.26-11.712 36.26h6.081s13.778-25.739 17.326-38.5 4.157-16.818 4.157-16.818l-4.223-11.145H68.888z" fill="#1c2c57"/><path d="M73.96 221.56a1.972 1.972 0 0 0 1.133 2.166c.875.466 1.783.242 2.032-.491a1.972 1.972 0 0 0-1.133-2.166c-.866-.472-1.782-.242-2.032.491z" fill="#f9af89"/><path d="M88.713 267.507H68.888v-25.431a10.789 10.789 0 0 1 9.788-10.745l13.782-1.666s1.624 2.482 6.139 8.247a46.439 46.439 0 0 1-11.712 4.9z" fill="#ed6a5a"/><path d="M68.888 267.507s2.8 10.129 13.128 21.491a13.3 13.3 0 0 1 3.857 10.329l-2.132 34.652h6.164s7.514-28.78 5.9-42.965a65.116 65.116 0 0 0-7.1-23.507H68.888z" fill="#004060"/><path d="M104.714 202.851c1.066 2.207 2.516 3.723 3.232 3.374s.433-2.416-.633-4.631-2.516-3.723-3.232-3.382-.433 2.423.633 4.639z" fill="#58c3c4"/><path d="M87.172 209.365l.183.083a2.777 2.777 0 0 0 2.066.133l.125-.042a3.7 3.7 0 0 0 2.349-2.382.683.683 0 0 0-.791-.875l-1.374.283a2.086 2.086 0 0 0-1.308.891z" fill="#f9af89"/></g><g><path d="M316.358 318.961l14.977 21.241-5.148 1.758-14.235-10.329.65-7.189z" fill="#f9af89"/><path d="M313.184 308.831c6.747 4.856 1.491 46.48 1.491 46.48l-27.005-5.248c.008.001 2.12-42.231 25.514-41.232z" fill="#ffd774"/><path d="M309.653 308.965l2.632-3.857 4.665 2.424-1.583 5.181a.722.722 0 0 1-.142.058 14.891 14.891 0 0 0-5.572-3.806z" fill="#f69b81"/><path d="M312.818 295.787l-1.3 7.164a1.127 1.127 0 0 1 .658 1.624 1.524 1.524 0 0 1 0 .55 8.336 8.336 0 0 0 5.964 2.949c4.681.192 4.007-9.1 4.007-9.1z" fill="#f9af89"/><path d="M309.32 300.58a4.477 4.477 0 0 0-.675-2.224c-2.024-2.79.625-3.857 1.549-4.19 1.025-.367 1.224-2.016 2.591-2.649 2.082-.966 3.449.858 4.623.916s2.224-1.283 3.682-.1.966 2.424 1.366 3.09 1.716-.608 2.915 1.483c1.824 3.174-3.207 3.174-3.207 3.174a8.885 8.885 0 0 1-6-1.7 1.162 1.162 0 0 0-1.416.017c-1.091.933-2.482 6.839-2.482 6.839l-.925-1.224a3.3 3.3 0 0 1-2.021-3.432z" fill="#1c2c57"/><path d="M311.868 301.792a1.117 1.117 0 1 0 .925-1.274 1.115 1.115 0 0 0-.925 1.274z" fill="#f9af89"/><path d="M263.672 398.779s-2.149 2.316-3.49 7.589c-.3 1.166.1 2.416-1.816 2.416v-6.405l.925-5.323h-.925v-2.882s4.706-.8 5.306.883z" fill="#1c2c57"/><path d="M267.054 398.211l-3.382.566a3.254 3.254 0 0 1-.117-3.523l.117-.2 3.382-.833z" fill="#f9af89"/><path d="M307.695 423.791s.017 3.59 7.23 5.748c1.483.442 1 .883 1.275 1.5h-8.3l-3.249-3.657-1.008.866-2.345-2.303s1.091-3.332 2.882-3.365c1.466.511 3.515 1.211 3.515 1.211z" fill="#1c2c57"/><path d="M309.045 420.676l-1.349 3.107a3.254 3.254 0 0 1-3.374-1.025l-.15-.175 1.091-3.2z" fill="#f9af89"/><path d="M288.253 359.377s.317 10.646 4.4 19.933a4.895 4.895 0 0 1-3.465 6.789c-14.719 3.082-23.032 8.038-23.032 8.038v5.065l34.344-4.7a12.076 12.076 0 0 0 10.371-10.72l1.1-10.621z" fill="#1c2c57"/><path d="M312.993 357.836s11.87 22.266 11.87 29.171-15.977 33.836-15.977 33.836h-4.576s.808-17.068 3.907-31.212a8.062 8.062 0 0 0-2.324-7.622c-9.713-9.113-18.326-24.165-18.326-24.165h25.423z" fill="#004060"/><path d="M262.706 346.857l2.457 25.489 82.865-10.2-3.065-25.331z" fill="#ed6a5a"/><g fill="#f9af89"><path d="M294.168 322.776l9.4 5.814-6.78 7.772-.966 22.091-3.657-.708s-5.723-17.06-4.581-22.932 6.584-12.037 6.584-12.037z"/><path d="M295.822 358.448l-.033 4.381a3.6 3.6 0 0 1-.6 1.974c-.733 1.108-2.041 2.732-3.249 2.5-1.808-.35-3.932-4.515-3.932-4.515l4.157-5.056z"/></g></g><g><g fill="#f69b81"><path d="M200.516 213.78s-1.974 11.3-4.948 16.993-15.6 16.376-15.6 16.376l-1.241-3.723 9.329-13.186 4.223-14.069z"/><path d="M178.725 243.618a6.7 6.7 0 0 1-2.374 2.915c-1.649 1.358-5.9 3.182-3.99 4.415 2.3-.258 5.04-.283 5.04-.283 1.374-.292 2.949-2.066 3.715-3.357l1.883-4.257s-.991-2.032-1.025-2.132l-.958.217a11.027 11.027 0 0 1-2.291 2.482z"/><path d="M178.658 244.8a1.692 1.692 0 0 1-.05.342c.3-.067.591-.117.891-.158.933-.608 1.883-1.191 2.824-1.791-.425-.491-1.016-1.174-1.05-1.233l-6.93 2.707s-.05.958 1.508.883a7.3 7.3 0 0 0 2.807-.75z"/></g><path d="M184.306 207.116l5.648 1.7 1.441-6.131-9.179-.491z" fill="#f69b81"/><path d="M184.989 209.215a3.14 3.14 0 0 1-.741 1.649c-3.407 1.491-11.07-2.432-11.07-2.432l-.758-3.574 3.432-3.7 5.489.808a4.5 4.5 0 0 1 3.39 2.6 8.88 8.88 0 0 1 .258 4.649z" fill="#f9af89"/><path d="M178.808 202.418c-.958.058-3.04-.475-3.065.491-.017.7-.375 3.04-.525 3.823-.358 1.866-1.733 5.048-4.565 4.5a3.848 3.848 0 0 1-2.574-2.832 3.9 3.9 0 0 1 .483-2.707c1.116-1.916 3.224-4.332 3.215-5.464-.017-1.9 1.408-3.515 2.957-3.19a15.8 15.8 0 0 1 5.406 2.815 8.943 8.943 0 0 1 2.074 2.332z" fill="#1c2c57"/><path d="M179.375 200.56a1.431 1.431 0 0 0-.183 1.766c.35.633.991.866 1.441.516a1.42 1.42 0 0 0 .175-1.766c-.342-.624-.984-.857-1.433-.516z" fill="#f9af89"/><path d="M190.303 210.215l-.275 10.487 4.49 3.34v-13.827z" fill="#58c3c4"/><path d="M204.768 245.633s-2.374 2.2-7.78 3.573c-1.191.3-2.474-.1-2.474 1.866h6.564l5.456-.941v.941h2.949s.816-4.823-.9-5.439z" fill="#1c2c57"/><path d="M205.355 242.168l-.583 3.465a3.33 3.33 0 0 0 3.607.117l.2-.117-.292-3.465zM255.742 242.252l3.182-.625a3.127 3.127 0 0 0-.275-3.365l-.133-.175-3.215.367z" fill="#f9af89"/><path d="M217.974 225.875s-4.1-.167-12.211-5.173c5.481 9.763 3.7 23.057 3.7 23.057h-4.648l-11.447-29.979 27.422-1.424v13.828z" fill="#004060"/><path d="M188.121 202.244s14.3-14.819 42.674 3.94l-12.162 14.519-14.782-5.007-11.2 3.1z" fill="#ffd774"/><g fill="#f9af89"><path d="M203.856 215.696s-.716 12.395-3.1 18.359-13.952 16.926-13.952 16.926l-1.616-3.573 7.938-14.069-.475-14.544z"/><path d="M185.214 247.591a6.769 6.769 0 0 1-2.066 3.149c-1.5 1.516-5.548 3.765-3.524 4.8 2.266-.491 4.981-.8 4.981-.8 1.341-.433 2.724-2.357 3.357-3.723l1.441-4.423s-1.191-1.916-1.233-2.016l-.933.308a10.851 10.851 0 0 1-2.023 2.705z"/><path d="M185.272 248.782a1.393 1.393 0 0 1-.017.35c.292-.1.583-.175.866-.25.866-.7 1.749-1.374 2.624-2.074-.466-.441-1.133-1.066-1.166-1.116l-6.622 3.4s.05.958 1.591.725a7.544 7.544 0 0 0 2.724-1.035z"/></g><path d="M230.792 206.183s7.63 5.864 8.1 13.328-7.155 21.408-7.155 21.408 8.538-7.147 24.057-3.049a31.325 31.325 0 0 1 .975 4.94s-32.177 11.723-36.954 5.913-1.191-28.022-1.191-28.022zM258.549 241.627s2.4.741 2.949 7.93c.117 1.474.625 1.116 1.15 1.5.483-2.216 1.691-6.814 1.691-6.814l-1.8-4.74 1.016-.766-1.674-2.657s-3.34.35-3.732 2.008l.4 3.539z" fill="#1c2c57"/></g><g><path d="M169.796 278.372l-8.921 23.29-5.614-4.182 12.553-21.166z" fill="#f69b81"/><path d="M168.688 271.323a3.6 3.6 0 0 0-.808 2.457l-.392 3.365.458.516 1.574 1.4c-.058-.7-.133 0-.133 0l2.532-4.415s3.065-1.966-.8-4.865a1.119 1.119 0 0 0-1.274-.083 2.849 2.849 0 0 0-1.157 1.625z" fill="#f69b81"/><path d="M150.112 318.486a146.667 146.667 0 0 0 10.76-16.826l-4.831-5.506-5.931 6.914v15.419z" fill="#006769"/><path d="M136.193 419.451l2.84.492c.591-3.523 9.413-20.217 10.137-28.88a197.1 197.1 0 0 1 3.032-20.341l-9.5-2.824s-2.407 0 .233 19.617c-5.935 7.793-7.525 25.472-6.742 31.936z" fill="#f69b81"/><path d="M143.182 360.759s2.232 13.419 5.331 27.772c-3.24 8.663 1.7 32.853 1.791 32.761.375-.35 2.082 1.749 2.082 1.749s3.6-21.341 4.4-30.97.991-21.358.991-21.358z" fill="#f9af89"/><path d="M149.904 419.943a3.191 3.191 0 0 0-1.108 2.607c.25 1.458.6 4.881.6 4.881h1.391l-.042-3.19c0-.208 2.982 3.19 3.482 3.19h7.355s.491-2.149-3.832-2.84-7.846-4.648-7.846-4.648z" fill="#004060"/><path d="M139.35 417.511l-.2 3.049a2.818 2.818 0 0 0 .5 1.8 11.163 11.163 0 0 0 2.216 2.3c-2.132.683-4.073-1.708-5.09-3.3a3.78 3.78 0 0 1-.55-2.607l.358-2.4z" fill="#f69b81"/><path d="M136.193 419.185s-1.874.167-2.182 1.6-1.2 4.315-1.2 4.315l1.025.816 1.441-2.865s3.1 4.182 3.59 4.39h8.03s0-2.657-5.023-2.774c-4.633-.118-5.681-5.482-5.681-5.482z" fill="#1c2c57"/><path d="M179.163 277.236l-8.913 23.3-5.623-4.182 12.561-21.166z" fill="#f9af89"/><path d="M178.05 270.198a3.647 3.647 0 0 0-.808 2.457l-.391 3.365.458.525 1.574 1.4c-.058-.691-.133 0-.133 0l2.532-4.415s3.065-1.966-.8-4.873a1.119 1.119 0 0 0-1.274-.083 2.9 2.9 0 0 0-1.158 1.624z" fill="#f9af89"/><path d="M152.195 306.24h-5.748l2.3-6.747 4.49 2.757z" fill="#f69b81"/><path d="M159.824 313.505c-.033-.167-.067-.317-.1-.466 5.689-7.339 10.521-12.5 10.521-12.5l-4.831-5.506-11 10.437-3.224.017a6.464 6.464 0 0 0-8.163 1.05c-1.391 1.433-2.316 5.323-1.391 9.429 2.557 11.329.558 17.326.558 17.326l14.827 5.523.566-16.76v-.025a7.673 7.673 0 0 1 1.2-3.782 6.7 6.7 0 0 0 1.037-4.743z" fill="#004060"/><g><path d="M154.21 287.357l-9.421 3.3.925 7.03c.017.1.042.192.058.292.183.033.358.067.541.108.033.008.058.017.083.025s.058.008.083.017a6.455 6.455 0 0 1 4.406 4.406 11.165 11.165 0 0 0 4.073-.05 4.1 4.1 0 0 0 2.141-.925c2.009-4.332-2.889-14.203-2.889-14.203z" fill="#f9af89"/></g><path d="M153.994 293.337c-2.541 1.241-1.941 14.311-2.374 23.215a10.12 10.12 0 0 1-8.563 9.463c-3.357.533-7.047.633-9.271-.633 1.474-1.2 9.4-12.861 6.855-28.3-.333-2.032-.375-7.688 3.049-10.762 3.8-3.407 11.645 1.041 11.645 1.041s2.149 4.277-1.341 5.976z" fill="#1c2c57"/><path d="M157.326 332.938s1.974 10.046 1.974 16.018c0 3.282-.8 23.965-.8 23.965s-14.086 1.016-16.818 1.016c-.683-16.951-4.54-17.468-4.54-25.373 0-3.432 1.758-7.322 3.115-9.788a14.243 14.243 0 0 0 1.949-5.5l.092-.325z" fill="#ffcf52"/></g><g><path d="M447.23 426.648s-.975 1.341-5.548 2.507c-1.008.258-2.091.433-2.091 2.091h4.515l4.623-.8v.8h2.491s.7-4.082-.758-4.606c-1.351.008-3.232.008-3.232.008z" fill="#1c2c57"/><path d="M446.995 423.725l.242 2.932a2.823 2.823 0 0 0 3.057.1l.175-.1v-2.932z" fill="#f9af89"/><path d="M470.401 427.24s-.975 1.341-5.548 2.507c-1.008.258-2.091.433-2.091 2.091h4.515l4.615-.8v.8h2.5s.691-4.082-.766-4.606c-1.343.008-3.225.008-3.225.008z" fill="#1c2c57"/><path d="M470.168 424.308l.233 2.932a2.807 2.807 0 0 0 3.057.1l.175-.1v-2.932z" fill="#f9af89"/><path d="M445.154 351.697l1.125 73.619h5.364s8.163-59.433 6.422-73.619-12.911 0-12.911 0z" fill="#1c2c57"/><path d="M450.819 351.68s1.866 22.615 6.156 35.135 12.028 38.5 12.028 38.5h5.556s-9.271-54.294-7.155-73.636h-16.585z" fill="#083a5d"/><path d="M445.987 314.204s-6.614 15.419-8.288 15.419c-1.341 0 .5-12.586.5-12.586h-5.539s-6.964 21.574-1.424 25.514 17.7-11.154 17.7-11.154z" fill="#147cc2"/><path d="M465.695 353.635l-2 4.956c-.966 1.941-4.506 2-6.864 1.374a.491.491 0 0 1-.233-.8 69.253 69.253 0 0 1 5.806-5.864z" fill="#f9af89"/><path d="M451.459 310.989a6.2 6.2 0 0 0-5.323 2.949 4.2 4.2 0 0 0-.65 2.116v35.627h20.233v-33.312s-.417-7.405-7.655-7.405c-3.089 0-5.197.008-6.605.025z" fill="#147cc2"/><path d="M445.82 351.697v-32l-.666.025V351.7z" fill="#fff"/><path d="M458.861 304.167l-2.157 8.122a5.123 5.123 0 0 1-4.282.85c-2.441-.65-1.974-2.407-1.974-2.407l1.383-5.206 3.857.017z" fill="#f69b81"/><path d="M451.11 306.983a3.234 3.234 0 0 1-1.691-.95c-1.249-4.023 3.69-12.678 3.69-12.678l7.489 3.5-1.408 6.3a5.42 5.42 0 0 1-3.107 3.782 8.785 8.785 0 0 1-4.973.046z" fill="#f9af89"/><path d="M456.857 296.029a17.473 17.473 0 0 1-5.356-1.424c-2.616-1.216-.058-3.773-.058-3.773a11.159 11.159 0 0 0 5.539 1.891c2.532.283 3.315-.008 4.656 1.233 1.824 1.7.292 5.4.292 5.4l-3.324 7.805-.442-.117s1.175-4.856 1.608-6.5c-.258-.866-.758-1-1.191-.916a1.284 1.284 0 0 0-.95.941l-2.241 8.43s-5.981.891-7.239.108 1.316-6.78 1.316-6.78a2.594 2.594 0 0 1 2.616 1.424c.85 1.674 2.69.658 2.69.658z" fill="#1c2c57"/><path d="M433.726 317.033l.192-1.066c.433-2.357 2.682-5.281 4.948-6.047h2.349l-.733 5.023-3.316 2.09zM459.323 299.602a1.417 1.417 0 0 0-1.633.941 1.219 1.219 0 0 0 .5 1.708 1.415 1.415 0 0 0 1.633-.95 1.225 1.225 0 0 0-.5-1.699z" fill="#f9af89"/><path d="M439.523 314.39l-4.573 2.649s2.874-.033 2.915 0l4.848-4.057s-.35-.708-1.449-.108a5.615 5.615 0 0 0-1.741 1.516z" fill="#f9af89"/><path d="M463.563 313.188S475 325.888 475 333.504s-9.279 21.033-9.279 21.033l-4.59-1.341s4.14-16.61 4.14-21.024-8.5-10.9-8.5-10.9" fill="#147cc2"/><path d="M464.926 332.181c0 3.807-3.365 17.709-4.157 20.949.233.058.325.083.683.175.975-4 4.148-17.384 4.148-21.116 0-4.531-8.28-10.9-8.63-11.162l-.408.533c.087.047 8.364 6.414 8.364 10.621z" fill="#fff"/><g><path d="M442.522 306.791a12.144 12.144 0 0 1-3.182 8.546 1.36 1.36 0 0 1-.908.367 3.312 3.312 0 0 1-1.541-.458 1.492 1.492 0 0 1-.866-.8.624.624 0 0 1 .15-.65c.725-.833 3.007-3.732 2.491-6.606a5 5 0 0 1 3.856-.399z" fill="#147cc2"/><path d="M436.491 315.021a.973.973 0 0 1-.466-.575.624.624 0 0 1 .15-.65c.725-.833 3.007-3.732 2.491-6.606a4.176 4.176 0 0 1 1.883-.6c-.276 3.058-1.184 5.011-4.058 8.431z" fill="#1898df"/><path d="M439.324 310.481c-.233.683-.633 1.158-.9 1.066s-.3-.716-.067-1.4.633-1.158.9-1.066.292.717.067 1.4z" fill="#006769"/><path d="M439.307 309.117l-.283-.108.008.15.183.1z" fill="#f79a4b"/><path d="M438.482 311.564l-.342-.117.408-.008z" fill="#ee4266"/><path d="M439.09 310.407c-.233.683-.633 1.158-.908 1.066s-.3-.716-.067-1.4.633-1.158.908-1.066.301.713.067 1.4z" fill="#58c3c4"/><path d="M444.263 302.835l.541.067a1.852 1.852 0 0 1 1.649 2.016l-.175 1.416a1.85 1.85 0 0 1-2.091 1.549l-.541-.067z" fill="#147cc2"/><path d="M427.637 302.168c-.483 3.865.008 7.105 1.108 7.239s2.374-2.882 2.857-6.739-.008-7.105-1.108-7.239-2.374 2.882-2.857 6.739z" fill="#1c2c57"/><path d="M432.018 300.102l-1.7.825-.283 2.257 1.433 1.674.925-2.874z" fill="#fff"/><path d="M431.599 302.668c.408-3.249.117-6.039-.633-6.939a32.186 32.186 0 0 0 13.586 7.2l-.616 4.931s-10.337-1.891-14.66 1.383h-.008c.959-.686 1.925-3.327 2.331-6.575z" fill="#ffcf52"/><path d="M429.961 302.026c-.075.625-.042 1.15.075 1.158s.283-.483.358-1.108.05-1.15-.075-1.166-.275.491-.358 1.116z" fill="#ffcf52"/></g><path d="M436.275 313.388a5.4 5.4 0 0 0 2.557.416c1.333 0 1.933-1.633 2.157-2.524.083-.317.15-.758-.242-.958l-2.141-.3z" fill="#f9af89"/></g></svg>