<svg xmlns="http://www.w3.org/2000/svg" xmlns:xlink="http://www.w3.org/1999/xlink" width="475" height="428.165" viewBox="0 0 475 428.165"><defs><linearGradient id="a" x1="16.451" y1="8.039" x2="17.388" y2="8.039" gradientUnits="objectBoundingBox"><stop offset="0" stop-color="#d5ece4"/><stop offset="1" stop-color="#afe0ea"/></linearGradient><linearGradient id="b" x1="12.371" y1="17.689" x2="13.359" y2="17.689" xlink:href="#a"/><linearGradient id="c" x1="12.621" y1="13.32" x2="13.6" y2="13.32" xlink:href="#a"/><linearGradient id="d" x1="20.793" y1="6.407" x2="21.693" y2="6.407" xlink:href="#a"/><linearGradient id="e" x1="30.861" y1="5.652" x2="31.691" y2="5.652" xlink:href="#a"/><linearGradient id="f" x1="63.689" y1="5.412" x2="64.659" y2="5.412" xlink:href="#a"/><linearGradient id="g" x1="27.765" y1="5.7" x2="28.607" y2="5.7" xlink:href="#a"/><linearGradient id="h" x1="44.124" y1="5.505" x2="44.862" y2="5.505" xlink:href="#a"/><linearGradient id="i" x1="20.733" y1="6.093" x2="21.62" y2="6.093" xlink:href="#a"/><linearGradient id="j" x1="14.71" y1="7.812" x2="15.653" y2="7.812" xlink:href="#a"/><linearGradient id="k" x1="45.71" y1="5.484" x2="46.975" y2="5.484" xlink:href="#a"/><linearGradient id="l" x1="17.037" y1="6.735" x2="17.958" y2="6.735" xlink:href="#a"/><linearGradient id="m" x1="19.095" y1="8.173" x2="20.017" y2="8.173" xlink:href="#a"/><linearGradient id="n" x1="18.853" y1="8.118" x2="19.777" y2="8.118" xlink:href="#a"/><linearGradient id="o" x1="17.709" y1="8.489" x2="18.641" y2="8.489" xlink:href="#a"/><linearGradient id="p" x1="19.246" y1="8.254" x2="20.169" y2="8.254" xlink:href="#a"/><linearGradient id="q" x1="50.963" y1="5.441" x2="52.258" y2="5.441" xlink:href="#a"/><linearGradient id="r" x1="15.991" y1="9.743" x2="16.94" y2="9.743" xlink:href="#a"/><linearGradient id="s" x1="19.496" y1="8.431" x2="20.417" y2="8.431" xlink:href="#a"/><linearGradient id="t" x1="14.709" y1="11.18" x2="15.674" y2="11.18" xlink:href="#a"/><linearGradient id="u" x1="61.984" y1="5.463" x2="63.357" y2="5.463" xlink:href="#a"/><linearGradient id="v" x1="14.672" y1="12.626" x2="15.642" y2="12.626" xlink:href="#a"/><linearGradient id="w" x1="13.275" y1="9.847" x2="14.238" y2="9.847" xlink:href="#a"/><linearGradient id="x" x1="14.191" y1="14.399" x2="15.167" y2="14.399" xlink:href="#a"/><linearGradient id="y" x1="14.202" y1="15.1" x2="15.18" y2="15.1" xlink:href="#a"/></defs><path d="M396.272 216.58c-43.481 0-78.728 35.841-78.728 80.044s35.247 80.044 78.728 80.044S475 340.827 475 296.624s-35.246-80.044-78.728-80.044zm0 131.888c-28.161 0-51.005-23.218-51.005-51.844s22.831-51.844 51.005-51.844 51.005 23.219 51.005 51.844-22.844 51.844-51.005 51.844z" fill="#ed6a5a"/><path d="M58.05 154.463a58.055 58.055 0 0 0 58.052-58.052H0a58.055 58.055 0 0 0 58.05 58.052z" fill="#f9a425"/><path d="M428.818 97.623c-1.265-.155-5.369 2.478-9.292 6.26a47.38 47.38 0 0 0-12.855-5.124c.181-4.762-.116-9.809-2.026-11.177-3.9-2.788-16.83-1.239-18.43 0-1.033.787-2.091 5.73-2.155 11.293a47.224 47.224 0 0 0-12.687 5.2c-3.24-3.51-7.034-6.879-9.37-6.491-4.724.774-12.777 11.022-13.035 13.035-.155 1.265 2.465 5.343 6.221 9.254a47.425 47.425 0 0 0-5.6 12.88c-4.608-.142-9.344.207-10.66 2.052-2.788 3.9-1.239 16.83 0 18.43.736.955 5.059 1.936 10.144 2.116a47 47 0 0 0 5.317 13.707c-3.1 2.994-5.808 6.285-5.459 8.389.774 4.723 11.022 12.777 13.035 13.035 1.136.142 4.556-1.961 8.066-5.124a47.5 47.5 0 0 0 14.042 6.04c-.026 4.078.439 7.95 2.078 9.138 3.9 2.787 16.83 1.239 18.43 0 .878-.684 1.794-4.427 2.065-9.009a47.047 47.047 0 0 0 14.236-5.963c2.865 2.891 5.911 5.292 7.9 4.969 4.724-.774 12.777-11.022 13.035-13.035.142-1.136-1.975-4.569-5.15-8.093a47.325 47.325 0 0 0 5.5-14.016c4.285.064 8.466-.362 9.693-2.078 2.788-3.9 1.239-16.83 0-18.43-.749-.955-5.1-1.949-10.209-2.129a47.651 47.651 0 0 0-5.795-13.177c3.33-3.136 6.376-6.685 6.014-8.918-.789-4.722-11.036-12.763-13.053-13.034zm-18.13 62.578a21.318 21.318 0 1 1 0-30.149 21.32 21.32 0 0 1 0 30.149z" fill="#e8e8e8"/><path d="M417.063 166.349a30.645 30.645 0 1 1 0-43.339 30.675 30.675 0 0 1 0 43.339zm-42.59-42.591a29.6 29.6 0 1 0 41.855 0 29.632 29.632 0 0 0-41.855.001z" fill="#fff"/><g fill="#fff"><path d="M419.632 108.039c-.155.129-.323.245-.477.362a43.482 43.482 0 0 1-33.621 78.934 5.66 5.66 0 0 1-.336.49 44.027 44.027 0 0 0 34.434-79.786zM352.674 139.57a43.222 43.222 0 0 1 12.364-25.245c.142-.142.284-.271.426-.4-.181-.078-.361-.181-.529-.271-.09.09-.194.18-.284.271a43.814 43.814 0 0 0-12.506 25.464c.168.051.348.116.529.181z"/></g><path d="M254.627 349.269c4.956 0 9.447.116 12.79-3.02l-4.117 48.85s73.139 21.863 129.1 0c25.012-9.77 0-124.984 0-124.984s-113.226-12.493-124.984-2.052 0 50.9 0 50.9a18.7 18.7 0 0 0-31.517 13.642c.001 10.339 8.377 16.664 18.728 16.664z" fill="#5d5d5d"/><path d="M185.54 256.796c.052 4.8-.3 9.241 1.9 12.725a.842.842 0 0 1-.787 1.291l-46.928-3.949s-21.863 73.139 0 129.1c9.77 25.012 124.984 0 124.984 0s12.493-113.226 2.052-124.984c-8.854-9.977-39.351-3.021-48.372-.684a.845.845 0 0 1-.9-1.3 18.711 18.711 0 0 0-15.5-29.53c-9.264.088-16.539 8.052-16.449 17.331z" fill="#ed6a5a"/><path d="M345.899 281.666c-.039-4.143.206-8-1.136-11.228a1.9 1.9 0 0 1 1.91-2.633l45.043 3.794s21.863-73.139 0-129.1c-9.77-25.012-124.984 0-124.984 0v40.4a3.7 3.7 0 0 0 6.027 2.865c3.2-2.569 6.879-4.724 10.08-4.724 10.286 0 18.637 12.455 18.637 22.741s-10.403 18.635-20.689 18.635a18.552 18.552 0 0 1-10.015-2.93 3.7 3.7 0 0 0-5.614 2.13c-2.994 11.383-8.466 36.86-.465 45.869 8.17 9.2 34.744 4 45.895 1.3a1.889 1.889 0 0 1 2.117 2.724 18.713 18.713 0 0 0 16.752 27.5c9.253-.113 16.532-8.075 16.442-17.343z" fill="#ffcf52"/><path d="M281.95 137.774l-2.091-13.216c-.465-1.717-1.278-3.6-2.852-3.691a9.238 9.238 0 0 0-2.039.129c-.477.555 2.956 17.966 2.956 17.966l.077.065c2.516 1.518 3.949-1.253 3.949-1.253z" fill="#004060"/><path d="M275.315 120.919l2.568 18.017-.723-.052-2.478-17.914z" fill="#58c3c4"/><path d="M281.136 132.547l-.194-1.187-1.562.632.181 1.149zM280.723 129.993l-.193-1.187-1.562.63.181 1.161z" fill="#fff"/><path d="M286.505 137.981l-4.543-.206a4.307 4.307 0 0 1-.645-3.524l.052-.219 4.3-1.342z" fill="#f9af89"/><path d="M367.685 133.051a126.445 126.445 0 0 1-39.893 3.162 26.035 26.035 0 0 0-10.3 1.123c-12.893 4.078-31.749 1.148-31.749 1.148l-1.174-5.975 63.589-14.623z" fill="#1c2c57"/><path d="M367.053 67.823l3.007 5.937-5.124 1.923-2.362-4.814z" fill="#f69b81"/><path d="M365.612 57.099l2.142 8.169a1.307 1.307 0 0 0-.619 1.936 1.506 1.506 0 0 0 .052.632 9.7 9.7 0 0 1-6.634 3.936c-5.395.646-5.446-10.157-5.446-10.157z" fill="#f9af89"/><path d="M370.086 62.325a5.108 5.108 0 0 1 .581-2.633c2.091-3.407-1.058-4.4-2.155-4.7-1.213-.323-1.6-2.22-3.227-2.84-2.491-.929-3.911 1.3-5.266 1.471s-2.685-1.278-4.259.207-.9 2.891-1.3 3.691-2.039-.555-3.227 1.975c-1.82 3.833 3.988 3.382 3.988 3.382a10.338 10.338 0 0 0 6.789-2.491 1.36 1.36 0 0 1 1.639-.1c1.342.981 3.485 7.679 3.485 7.679l.968-1.5c-.041-.01 2.668-1.391 1.984-4.141z" fill="#1c2c57"/><path d="M367.247 63.951a1.295 1.295 0 1 1-1.187-1.394 1.3 1.3 0 0 1 1.187 1.394z" fill="#f9af89"/><path d="M383.715 113.654l-25.412-2.078a53.739 53.739 0 0 0 1.239-11.384 20.986 20.986 0 0 0-1.962-8.131c.71-9.706 3.549-19.308 12.119-18.882 14.752 2.556 14.016 40.475 14.016 40.475zM310.923 82.859l10.286 21.63 22.005-4.169.336 1.743-23.36 4.44-10.88-22.883z" fill="#1898df"/><path d="M326.231 97.972a1.125 1.125 0 0 1 .891-1.02l4.775-1.032a4.9 4.9 0 0 1 3.459.529l4.066 2.311.581.142-.336 4.143c-.8-.49-1.278-.788-1.278-.788l-2.555-1.548s-7.021 3.9-8.247-1.161c-1.562 4.452-2.762 3.678-2.762 3.678z" fill="#f9af89"/><g><path d="M328.748 137.878l-13.345.968c-1.755.31-3.7.968-3.923 2.53a8.977 8.977 0 0 0-.039 2.052c.516.516 18.159-1.42 18.159-1.42l.077-.064c1.704-2.401-.929-4.066-.929-4.066z" fill="#004060"/><path d="M311.453 143.416l18.146-1.42-.1.723-18.03 1.329z" fill="#58c3c4"/><path d="M323.468 138.253l-1.2.091.49 1.613 1.162-.091zM320.887 138.433l-1.2.1.5 1.6 1.162-.077z" fill="#fff"/><path d="M329.341 133.361l-.594 4.517a4.33 4.33 0 0 1-3.575.348l-.206-.077-.968-4.388z" fill="#f9af89"/></g><path d="M383.715 113.653s-.323 16.984-15.526 19.321-35.092-13.165-35.092-13.165l-3.252 14.417-6 .438s-7.8-26.819.181-29.736 39.906 7.1 39.906 7.1z" fill="#147cc2"/><path d="M367.621 92.681l-10.041-.812-.286 11.189-17.888-4.285-4.065-2.31a4.9 4.9 0 0 0-3.459-.529l-4.775 1.033a1.125 1.125 0 0 0-.891 1.02l-1.394 5.253s1.2.761 2.762-3.678c1.226 5.046 8.247 1.149 8.247 1.149l2.555 1.548s19.708 12.558 24.238 9.68c4.558-2.88 4.997-19.258 4.997-19.258z" fill="#f9af89"/><g><path d="M369.583 308.95l8.737 5.575 3.691-7.679-11.293-12.958z" fill="#a1d6c4"/><path d="M323.43 257.751l10.7 27.968 6.84-5.085-15.281-25.748z" fill="#f9af89"/><path d="M322.797 248.252a4.4 4.4 0 0 1 1.574 2.723l1.316 3.91-.413.736-1.846 2.13a2.768 2.768 0 0 0-.736-1.458l-2.917-3.265s-4.775-5.576-.323-7.46c-2.62-5.175-.749-5.046-.749-5.046l2.349 4.44z" fill="#f9af89"/><path d="M322.126 249.271s.968-.9.1-3.071.439-2.014.439-2.014 3.575 8.415 2.426 9.37-2.965-4.285-2.965-4.285z" fill="#f9af89"/><path d="M354.108 291.475l-3.2.245-10.893-12.7-5.885 6.7a177.252 177.252 0 0 0 13.293 20.74c.452 2.142 2.788 23.735 2.788 23.735h18.878s-3.007-15.836 2.31-24.651-17.291-14.069-17.291-14.069z" fill="#1898df"/><path d="M368.64 374.939l-.1 43.764c0-.236-2.852 0-2.852 0s-4.195-23.011-5.111-33.388 0-11.073 0-11.073zM359.464 374.939l-.1 43.764c0-.236-2.852 0-2.852 0s-4.194-23.011-5.111-33.388 0-11.073 0-11.073zM353.63 269.689l11.461 4.014-1.135 8.556c-.013.116-.052.232-.065.362-.219.039-.439.077-.658.129a.3.3 0 0 1-.1.026c-.039.013-.065.013-.1.026a7.834 7.834 0 0 0-5.356 5.369 13.622 13.622 0 0 1-4.956-.064 4.95 4.95 0 0 1-2.607-1.123c-2.433-5.28 3.516-17.295 3.516-17.295z" fill="#f9af89"/><path d="M353.334 276.89a7.52 7.52 0 0 1 .232 6.583c-1.562 3.291-1.42 6.995-.387 9.034.71 1.381 2.555 2.762 4.195 3.794a6.482 6.482 0 0 1 3.046 4.9c.258 2.788.516 6.195 2.9 7.021 6.918 2.388 9.46 2.155 10.377-3.614a11.811 11.811 0 0 0-.594-5.653 10.125 10.125 0 0 1 .206-7.576 13.027 13.027 0 0 0 1.3-4.517c0-1.3-1.2-3.149-2.452-4.711a9.743 9.743 0 0 1-2.039-6.943c.219-2.491-.129-5.692-2.659-7.847-4.724-4.04-15.216 2.31-15.216 2.31s-.987 3.076 1.091 7.219z" fill="#1c2c57"/><path d="M382.015 306.846l4.194 4.35c2.788 2.891 3.652 6.9.3 9.125l-13.726 10.905 1.265 2.362a5.768 5.768 0 0 1-.5 6.208l-1.446 1.9-3.214-11.021 9.951-12.429a2.378 2.378 0 0 0-.516-3.7z" fill="#f9af89"/><path d="M350.21 330.193a46.142 46.142 0 0 0-2.762 14.442c0 3.988 3.459 34.111 3.459 34.111h17.981c-1.213-22.25 5.524-24.974 5.524-34.589 0-6.776-5.317-13.977-5.317-13.977H350.21z" fill="#004060"/><path d="M368.537 415.362a3.348 3.348 0 0 1 1.291 2.814c-.284 1.574-.7 5.266-.7 5.266h-1.613l.052-3.446c0-.219-3.472 3.446-4.052 3.446h-8.557s-.568-2.323 4.453-3.072 9.126-5.008 9.126-5.008z" fill="#1c2c57"/><path d="M359.4 415.362a3.348 3.348 0 0 1 1.291 2.814c-.284 1.574-.7 5.266-.7 5.266h-1.613l.052-3.446c0-.219-3.472 3.446-4.053 3.446h-8.559s-.568-2.323 4.453-3.072 9.129-5.008 9.129-5.008z" fill="#1c2c57"/></g><g><path d="M216.346 23.813c-2.233-.284-9.473 4.362-16.378 11.035a83.843 83.843 0 0 0-22.663-9.048c.336-8.389-.206-17.281-3.588-19.707-6.853-4.917-29.646-2.181-32.485 0-1.807 1.394-3.678 10.093-3.794 19.914a83.78 83.78 0 0 0-22.366 9.151c-5.717-6.182-12.4-12.132-16.507-11.448-8.325 1.368-22.508 19.424-22.973 22.973-.284 2.22 4.336 9.422 10.97 16.313a83.845 83.845 0 0 0-9.886 22.7c-8.118-.258-16.468.362-18.8 3.614-4.917 6.866-2.181 29.645 0 32.485 1.3 1.69 8.905 3.42 17.875 3.743a83.514 83.514 0 0 0 9.37 24.147c-5.472 5.292-10.222 11.074-9.615 14.778 1.368 8.324 19.424 22.508 22.973 22.973 2 .258 8.015-3.446 14.223-9.021a83.381 83.381 0 0 0 24.741 10.635c-.039 7.189.761 14.016 3.665 16.094 6.853 4.917 29.646 2.181 32.485 0 1.562-1.2 3.149-7.8 3.64-15.875a83.686 83.686 0 0 0 25.1-10.493c5.046 5.1 10.428 9.332 13.926 8.751 8.324-1.368 22.508-19.424 22.973-22.973.258-2-3.472-8.053-9.06-14.274a83.758 83.758 0 0 0 9.689-24.697c7.55.116 14.907-.632 17.088-3.652 4.917-6.866 2.181-29.646 0-32.485-1.3-1.691-8.983-3.433-18-3.743a83.306 83.306 0 0 0-10.209-23.218c5.859-5.524 11.241-11.783 10.6-15.707-1.401-8.316-19.444-22.5-22.994-22.965zm-31.969 110.3a37.572 37.572 0 1 1 0-53.135 37.569 37.569 0 0 1 .001 53.132z" fill="#e8e8e8"/><path d="M195.246 144.552a53.47 53.47 0 1 1 0-75.618 53.539 53.539 0 0 1 0 75.618zm-75.078-75.076a52.708 52.708 0 1 0 74.533.013 52.783 52.783 0 0 0-74.533-.013z" fill="#fff"/><g fill="#fff"><path d="M200.152 42.153c-.284.219-.555.439-.852.646a76.633 76.633 0 0 1-59.252 139.116v.013c-.194.3-.387.581-.594.865a77.616 77.616 0 0 0 60.7-140.639zM82.148 97.74a76.279 76.279 0 0 1 21.786-44.5c.245-.246.5-.465.749-.71-.323-.143-.632-.31-.942-.478-.168.167-.336.31-.5.478a77.3 77.3 0 0 0-22.044 44.875c.319.103.641.219.951.335z"/></g></g><path d="M267.453 158.902c-4.453 0-8.531-.09-11.732 2.181a.576.576 0 0 1-.916-.5l3.962-47.017a.573.573 0 0 0-.413-.606c-6.2-1.781-75.243-20.728-128.649.129-24.109 9.408-1.755 116.711-.09 124.532a.559.559 0 0 0 .568.452h42.087a2.692 2.692 0 0 0 2.039-4.452c-3.123-3.524-6.053-7.912-6.053-11.655 0-10.286 12.454-18.636 22.741-18.636s18.637 10.4 18.637 20.688a18.5 18.5 0 0 1-3.64 11.048 2.682 2.682 0 0 0 1.42 4.207c10.531 2.865 37.88 9.2 47.3.852 10.273-9.124 2.594-41.183.49-49.121a.575.575 0 0 1 .916-.594 18.7 18.7 0 0 0 20.25 1.665c15.994-8.612 9.27-33.173-8.917-33.173z" fill="#1898df"/><g><path d="M70.804 420.421s1.639 2.259 9.331 4.22c1.691.426 3.523.723 3.523 3.523h-7.6l-7.77-1.342v1.342h-4.195s-1.174-6.866 1.278-7.743z" fill="#1c2c57"/><path d="M71.204 415.491l-.4 4.93a4.748 4.748 0 0 1-5.137.167l-.284-.167v-4.93z" fill="#f9af89"/><path d="M41.559 420.421s1.626 2.259 9.331 4.22c1.691.426 3.523.723 3.523 3.523h-7.6l-7.77-1.342v1.342h-4.195s-1.174-6.866 1.278-7.743z" fill="#1c2c57"/><path d="M41.959 415.491l-.4 4.93a4.748 4.748 0 0 1-5.137.167l-.284-.167v-4.93z" fill="#f9af89"/><path d="M72.757 330.62v86.149h-8.428l-8.337-86.149z" fill="#353535"/><path d="M65.383 330.607S62.957 355 57.394 371.249 43.236 416.77 43.236 416.77h-8.673s12.042-61.06 9.28-86.162h21.54z" fill="#5d5d5d"/><path d="M71.668 281.951s8.583 20.018 10.764 20.018c1.742 0-.658-16.339-.658-16.339h7.189s9.034 28.006 1.846 33.13-22.973-14.481-22.973-14.481z" fill="#ed6a5a"/><path d="M46.075 333.137l2.594 6.427c1.252 2.53 5.859 2.594 8.918 1.781a.633.633 0 0 0 .3-1.045c-1.678-1.845-6.04-6.556-7.55-7.614z" fill="#f9af89"/><path d="M67.835 277.821s4.478 3.046 4.478 6.531v46.256H46.049v-43.249s.542-9.615 9.938-9.615 11.848.077 11.848.077z" fill="#ed6a5a"/><path d="M71.875 330.624v-41.55l.878.026v41.52z" fill="#fff"/><path d="M58.556 266.037v12.081a7.4 7.4 0 0 0 5.64 2.762c3.627 0 3.627-2.62 3.627-2.62v-7.744l-5.369-1.394z" fill="#f69b81"/><path d="M68.287 272.812a4.576 4.576 0 0 0 2.7-.7c3.227-5.136-.452-18.985-.452-18.985l-11.693 2.091-.374 9.28a7.757 7.757 0 0 0 2.93 6.4 12.417 12.417 0 0 0 6.889 1.914z" fill="#f9af89"/><path d="M64.354 255.467a25.124 25.124 0 0 0 7.963 0c4.091-.723 1.471-5.227 1.471-5.227s-3.02 1.381-8.4.581c-3.627-.542-4.595-1.239-6.931 0-3.162 1.678-2.4 7.4-2.4 7.4l1.742 12.08h.658s.155-7.189.155-9.628c.684-1.11 1.42-1.11 1.988-.839a1.816 1.816 0 0 1 .968 1.665v12.545s7.989 3.446 10.015 2.814.671-9.912.671-9.912a3.717 3.717 0 0 0-4.156 1.02c-1.794 2.014-3.988-.077-3.988-.077z" fill="#1c2c57"/><path d="M87.58 285.615l-.258-1.381c-.555-3.059-3.485-6.853-6.427-7.86H77.85l.942 6.518 4.311 2.723zM59.601 259.519a2.036 2.036 0 0 1 1.923 1.923 1.762 1.762 0 0 1-1.329 2.194 2.036 2.036 0 0 1-1.923-1.923 1.78 1.78 0 0 1 1.329-2.194z" fill="#f9af89"/><path d="M80.057 282.183l5.95 3.446s-3.73-.039-3.794 0l-6.3-5.266s.452-.916 1.884-.142a7.164 7.164 0 0 1 2.26 1.962z" fill="#f9af89"/><path d="M48.85 280.635s-14.855 16.494-14.855 26.38 12.054 27.309 12.054 27.309l5.95-1.742s-5.369-21.566-5.369-27.3 11.035-14.146 11.035-14.146" fill="#ed6a5a"/><path d="M47.069 305.285c0 4.943 4.375 23 5.395 27.206-.3.078-.426.1-.878.219-1.265-5.2-5.382-22.573-5.382-27.426 0-5.885 10.751-14.145 11.2-14.494l.529.7c-.113.075-10.864 8.335-10.864 13.795z" fill="#fff"/><g><path d="M76.07 271.38s-1.226 6.389 2.723 11.525a1.711 1.711 0 0 0 1.11.62 4.267 4.267 0 0 0 2.052-.335 1.915 1.915 0 0 0 1.239-.891.818.818 0 0 0-.09-.864c-.8-1.188-3.278-5.292-2.142-8.918a6.445 6.445 0 0 0-4.892-1.137z" fill="#147cc2"/><path d="M82.51 282.951a1.264 1.264 0 0 0 .7-.671.82.82 0 0 0-.09-.865c-.8-1.187-3.278-5.292-2.142-8.918a5.512 5.512 0 0 0-2.336-1.071c-.133 3.993.718 6.651 3.868 11.525z" fill="#1898df"/><path d="M79.605 276.645c.181.916.632 1.6.994 1.522s.5-.877.31-1.794-.632-1.6-.994-1.523-.503.879-.31 1.795z" fill="#f9a425"/><path d="M79.838 274.89l.374-.09-.026.193-.245.091zM80.51 278.182l.452-.09-.516-.077z" fill="#ee4266"/><path d="M79.902 276.581c.194.917.632 1.6.994 1.523s.5-.877.31-1.794-.632-1.6-.994-1.522-.488.89-.31 1.793zM74.469 265.998h-.71a2.392 2.392 0 0 0-2.439 2.336v1.846a2.4 2.4 0 0 0 2.439 2.336h.71z" fill="#f9a425"/><path d="M95.983 267.83c0 5.046-1.162 9.151-2.594 9.151s-2.594-4.091-2.594-9.151 1.162-9.151 2.594-9.151 2.594 4.092 2.594 9.151z" fill="#147cc2"/><path d="M90.692 264.462l2.052 1.329v2.955l-2.117 1.923-.736-3.846z" fill="#f9a425"/><path d="M90.808 267.831c0-4.246.826-7.808 1.936-8.841a41.876 41.876 0 0 1-18.662 7.073v6.453s13.629-.761 18.662 4.156h.013c-1.135-1.033-1.949-4.595-1.949-8.841z" fill="#1898df"/><path d="M93.015 267.263c0 .826-.129 1.484-.284 1.484s-.284-.671-.284-1.484.129-1.484.284-1.484.284.671.284 1.484z" fill="#006769"/></g><path d="M84.278 280.879a6.976 6.976 0 0 1-3.317.542c-1.729 0-2.5-2.129-2.8-3.278-.1-.413-.194-.981.31-1.239l2.775-.387z" fill="#f9af89"/></g><g><path d="M498.834 3114.86a37.569 37.569 0 0 0 4.169-3.317.74.74 0 1 1 .994 1.1 39.376 39.376 0 0 1-4.336 3.446q-.813.562-1.665 1.084a.747.747 0 0 1-.658.064.732.732 0 0 1-.361-.3.747.747 0 0 1 .232-1.02 42.925 42.925 0 0 0 1.625-1.057z" transform="translate(-334.228 -2985.925)" fill="url(#a)"/><path d="M551.6 3014.945c2.3-.31 4.711-.568 7.369-.774a.756.756 0 0 1 .8.671.747.747 0 0 1-.671.8c-2.633.206-5.021.465-7.292.774a.738.738 0 0 1-.374-.052.738.738 0 0 1 .168-1.42z" transform="translate(-318.505 -3014.169)" fill="url(#b)"/><path d="M542.464 3018.346a.736.736 0 0 1 .078-1.394 80.293 80.293 0 0 1 7.253-1.639.734.734 0 1 1 .258 1.445 80.895 80.895 0 0 0-7.124 1.613.644.644 0 0 1-.465-.025z" transform="translate(-321.11 -3013.84)" fill="url(#c)"/><path d="M508.258 3104.652a.724.724 0 0 1 1.007-.258.736.736 0 0 1 .258 1.007 41.412 41.412 0 0 1-4.4 6.078.737.737 0 1 1-1.11-.968 41.051 41.051 0 0 0 4.245-5.859z" transform="translate(-332.205 -2987.978)" fill="url(#d)"/><path d="M509.2 3104.226a.754.754 0 0 1-.374-.981q.407-.89.774-1.82a37.538 37.538 0 0 0 1.587-5.007.723.723 0 0 1 .891-.542.733.733 0 0 1 .542.89 40.044 40.044 0 0 1-1.652 5.214 34.086 34.086 0 0 1-.8 1.884.738.738 0 0 1-.942.387.028.028 0 0 0-.026-.025z" transform="translate(-330.769 -2990.43)" fill="url(#e)"/><path d="M511.886 3095.608a.966.966 0 0 1-.181-.052.738.738 0 0 1-.465-.774 48.252 48.252 0 0 0 .374-7.254.727.727 0 0 1 .723-.749.753.753 0 0 1 .749.723 52.891 52.891 0 0 1-.387 7.46.721.721 0 0 1-.813.646z" transform="translate(-330.051 -2993.066)" fill="url(#f)"/><path d="M514.653 3042.85a69.48 69.48 0 0 0-1.136 2.672 53.766 53.766 0 0 0-1.445 4.129.737.737 0 0 1-.916.491.1.1 0 0 1-.052-.026.738.738 0 0 1-.426-.9 56.986 56.986 0 0 1 1.484-4.233c.361-.929.749-1.833 1.162-2.749a.7.7 0 0 1 .981-.361.763.763 0 0 1 .348.977z" transform="translate(-330.223 -3006.143)" fill="url(#g)"/><path d="M511.459 3051.352a52.589 52.589 0 0 0-1.1 7.189.729.729 0 0 1-.8.671.532.532 0 0 1-.207-.052.736.736 0 0 1-.465-.749 53.73 53.73 0 0 1 1.136-7.382.734.734 0 0 1 .878-.555.745.745 0 0 1 .558.878z" transform="translate(-330.733 -3003.623)" fill="url(#h)"/><path d="M519.446 3035.072a56.773 56.773 0 0 0-3.872 6.169.74.74 0 0 1-.916.335.629.629 0 0 0-.09-.039.742.742 0 0 1-.3-1.007 61.568 61.568 0 0 1 3.962-6.311.729.729 0 0 1 1.032-.167.705.705 0 0 1 .184 1.02z" transform="translate(-329.195 -3008.432)" fill="url(#i)"/><path d="M527.019 3027.048a.763.763 0 0 1-.736.116.716.716 0 0 1-.3-.219.724.724 0 0 1 .116-1.033 59.137 59.137 0 0 1 6.092-4.3.741.741 0 1 1 .774 1.264 53.118 53.118 0 0 0-5.946 4.172z" transform="translate(-325.812 -3012.037)" fill="url(#j)"/><path d="M511.339 3077.4a.9.9 0 0 1-.374-.039.748.748 0 0 1-.465-.581l-.142-.916a360.92 360.92 0 0 1-.916-6.388.736.736 0 0 1 1.458-.194c.271 2.117.594 4.247.916 6.363l.142.929a.735.735 0 0 1-.619.826z" transform="translate(-330.574 -2998.337)" fill="url(#k)"/><path d="M520.625 3033.606a.769.769 0 0 1-.839.219.832.832 0 0 1-.206-.116.724.724 0 0 1-.09-1.033 61.777 61.777 0 0 1 5.111-5.433.74.74 0 1 1 1.007 1.084 58.7 58.7 0 0 0-4.983 5.279z" transform="translate(-327.703 -3010.425)" fill="url(#l)"/><path d="M439.848 3145.751a.735.735 0 1 1 1.058 1.02l-5.111 5.3a.749.749 0 0 1-.8.18.967.967 0 0 1-.245-.155.736.736 0 0 1-.013-1.045z" transform="translate(-352.344 -2975.994)" fill="url(#m)"/><path d="M446.25 3139.2a.739.739 0 0 1 1.045 1.045 338.96 338.96 0 0 0-5.15 5.253.716.716 0 0 1-.8.168.994.994 0 0 1-.245-.155.736.736 0 0 1-.013-1.045 284.522 284.522 0 0 1 5.163-5.266z" transform="translate(-350.499 -2977.895)" fill="url(#n)"/><path d="M453.15 3133a.734.734 0 0 1 .929 1.136 99.073 99.073 0 0 0-5.5 4.827.753.753 0 0 1-.774.155.773.773 0 0 1-.271-.18.726.726 0 0 1 .039-1.046 98.923 98.923 0 0 1 5.577-4.892z" transform="translate(-348.623 -2979.682)" fill="url(#o)"/><path d="M433.506 3152.342a.725.725 0 0 1 1.045-.013.748.748 0 0 1 .026 1.045l-5.111 5.317a.721.721 0 0 1-.8.168.994.994 0 0 1-.245-.155.748.748 0 0 1-.026-1.045z" transform="translate(-354.184 -2974.079)" fill="url(#p)"/><path d="M511.384 3077.691a.73.73 0 0 1 .826.632c.4 2.865.658 5.214.826 7.369a.737.737 0 0 1-.684.787.657.657 0 0 1-.323-.052.737.737 0 0 1-.465-.633c-.168-2.129-.426-4.452-.813-7.292a.734.734 0 0 1 .633-.811z" transform="translate(-330.193 -2995.71)" fill="url(#q)"/><path d="M460.995 3127.809a.739.739 0 0 1 .994.3.728.728 0 0 1-.3.994 58.19 58.19 0 0 0-6.169 3.859.718.718 0 0 1-.7.091.813.813 0 0 1-.336-.258.754.754 0 0 1 .168-1.033 57.793 57.793 0 0 1 6.343-3.953z" transform="translate(-346.581 -2981.167)" fill="url(#r)"/><path d="M422.1 3164.175l5.059-5.253a.725.725 0 0 1 1.045-.013.749.749 0 0 1 .026 1.046l-5.059 5.253a.744.744 0 0 1-.8.18.988.988 0 0 1-.245-.155.74.74 0 0 1-.026-1.058z" transform="translate(-356.017 -2972.167)" fill="url(#s)"/><path d="M495.827 3116.527a.733.733 0 1 1 .645 1.317 60.6 60.6 0 0 1-6.892 2.839.709.709 0 0 1-.516-.013.736.736 0 0 1 .026-1.381 56.976 56.976 0 0 0 6.737-2.762z" transform="translate(-336.629 -2984.443)" fill="url(#t)"/><path d="M509.483 3059.53a.735.735 0 0 1 .736.736c0 2.246.129 4.633.387 7.292a.736.736 0 0 1-.658.8.6.6 0 0 1-.336-.052.758.758 0 0 1-.465-.62c-.258-2.71-.387-5.137-.387-7.434a.713.713 0 0 1 .723-.722z" transform="translate(-330.77 -3000.985)" fill="url(#u)"/><path d="M469.709 3124.3a.738.738 0 0 1 .929.478.749.749 0 0 1-.478.929 70.152 70.152 0 0 0-6.84 2.517.784.784 0 0 1-.568.013.694.694 0 0 1-.4-.388.739.739 0 0 1 .387-.967 61.415 61.415 0 0 1 6.97-2.582z" transform="translate(-344.274 -2982.174)" fill="url(#v)"/><path d="M538.323 3018.535c.8-.323 1.613-.62 2.426-.917a.744.744 0 0 1 .942.452.733.733 0 0 1-.452.942c-.8.284-1.587.581-2.375.89a50.003 50.003 0 0 0-4.324 1.962.716.716 0 0 1-.607.026.778.778 0 0 1-.387-.349.744.744 0 0 1 .323-.994 60.817 60.817 0 0 1 4.454-2.012z" transform="translate(-323.589 -3013.177)" fill="url(#w)"/><path d="M487.476 3119.687a.734.734 0 0 1 .916.5.744.744 0 0 1-.5.916c-2.568.749-5.175 1.394-7.163 1.884a.769.769 0 0 1-.452-.026.714.714 0 0 1-.439-.516.723.723 0 0 1 .542-.89c1.972-.487 4.553-1.132 7.096-1.868z" transform="translate(-339.183 -2983.512)" fill="url(#x)"/><path d="M478.648 3121.934a.734.734 0 0 1 .891.542.743.743 0 0 1-.542.89c-2.181.516-4.7 1.136-7.137 1.794a.8.8 0 0 1-.465-.026.729.729 0 0 1-.439-.49.743.743 0 0 1 .516-.9 219.709 219.709 0 0 1 7.176-1.81z" transform="translate(-341.764 -2982.855)" fill="url(#y)"/></g><g><path d="M124.942 241.115l3.265 8.647c.271 1.213.323 2.659-.929 3.369a11.421 11.421 0 0 1-1.717.787c-.594-.129-4.362-11.809-4.362-11.809l.039-.064a3.1 3.1 0 0 1 3.704-.93z" fill="#147cc2"/><path d="M125.564 253.918l-4.362-11.809-.581.335 4.4 11.693z" fill="#1c2c57"/><path d="M126.248 244.535l.284.775-1.51.3-.284-.761zM126.867 246.2l.284.787-1.5.284-.284-.749z" fill="#fff"/><path d="M128.559 239.076l-3.627 2.039a2.337 2.337 0 0 0 .8 2.349l.129.1 4-1.033z" fill="#f9af89"/><path d="M157.507 184.496a20.726 20.726 0 0 0-4.517 10.686c-.62 4.53 1.084 11.719 1.265 17.359.168 5.162-2.155 9.254-6.247 12.4l-19.437 14.135 1.3 3.458s26.613-3.988 33.595-15.913 8.647-38.9 8.647-38.9z" fill="#147cc2"/><path d="M142.992 169.822l-10 22.327s-4.1.478-5.885 2.052c-.929.826-.891 2.465-.632 3.859a1.383 1.383 0 0 0 2.259.8 9.468 9.468 0 0 1 3.446-2.181 4.143 4.143 0 0 0 3.2-2.155l14.352-22.5zM192.444 124.908l5.124-4.375-3.975-21.644-6.169-3.149a1.787 1.787 0 0 1 2.194-.684 5.735 5.735 0 0 0 2.814.206s1.149-1.433-1.033-2.388c-1.226-.826-2.052 0-5.614-.142 0-.542 4.7-1.846 4.7-1.846 1.458-.478 5.2 2.426 5.2 2.426a2.712 2.712 0 0 1 .477 1.161l.594 4.014s7.95 21.786 7.95 24.109-4.453 5.511-4.453 5.511z" fill="#f9af89"/><path d="M164.902 186.755s-3.085 3.717-1.239 12.338c1.187 5.511 6.363 12.441 9.847 17.217 2.491 3.42 2.555 7.73 1.794 11.9-2.852 15.849 1.717 35.2 1.717 35.2h3.7s5.55-28.355 7.189-48.282a57.417 57.417 0 0 0-6.376-31.439z" fill="#38b0e5"/><path fill="#f9a425" d="M185.334 94.774l.45-3.064 11.62 1.704-.45 3.064z"/><path fill="#fff" d="M196.794 96.538l.45-3.064 1.06.156-.45 3.064z"/><path d="M197.465 96.734c.852.116 1.562.064 1.768-1.329.219-1.51-.465-1.652-1.317-1.781z" fill="#1c2c57"/><path d="M185.398 94.953l-2.246-1.355.155-1.11 2.542-.594z" fill="#fff"/><path d="M183.152 93.597l-.981-.7 1.136-.413z" fill="#004060"/><path fill="#f58a27" d="M185.569 94.586l.103-.703 11.225 1.642-.102.703zM185.781 93.103l.103-.703 11.225 1.642-.102.703z"/><path d="M155.829 142.938c-6.608 4.853-13.422 28.187-13.422 28.187l5.808 3.252 8.479-12.958s.916 15-1.342 26.509c1.02 4.311 5.924 3.833 13.874 2.323a39.461 39.461 0 0 0 13.151-4.93s.349-20.817 1.368-31.852-1.007-12.209 1.781-11.848c6.208-3.523 16.378-14.881 16.378-14.881l-9.447-1.833-20.34 11.912c-.013.014-9.964 2.639-16.288 6.119z" fill="#ffcf52"/><path d="M167.354 115.332l4.9 4.853a8.46 8.46 0 0 1 2.323 7.9l-.581 2.581z" fill="#f9af89"/><path d="M161.405 113.499c-11.912 0-6.853 22.883-6.853 22.883s2.117 14.842 6.853 20.8c4.091 5.163 12.183 3.6 16.017 1.135a14.668 14.668 0 0 1 6.182-2.284c3.252-.387 7.111-1.82 7.111-7.679 0-5.511-6.582-9.783-10.919-12.829a14.3 14.3 0 0 1-5.614-8.3c-1.381-5.66-4.763-13.726-12.777-13.726z" fill="#1c2c57"/><g><path d="M177.653 267.508l9.241-.013c1.226.167 2.594.632 2.826 2.052a11.378 11.378 0 0 1 .129 1.884c-.323.516-12.584-.065-12.584-.065l-.052-.052a3.129 3.129 0 0 1 .44-3.806z" fill="#147cc2"/><path d="M189.863 271.431l-12.584-.065.1.658h12.506z" fill="#004060"/><path d="M181.318 267.495l.826.013-.258 1.51h-.8zM183.099 267.495l.839.013-.258 1.51h-.813z" fill="#fff"/><path d="M177.021 263.404l.632 4.117a2.325 2.325 0 0 0 2.478.077l.142-.077.439-4.1h-3.691z" fill="#f9af89"/></g><path d="M189.63 95.056a1.787 1.787 0 0 0-2.194.684l4.1 2.091c.052-.026.116-.052.168-.078a21.1 21.1 0 0 1 2.71-.994 35.438 35.438 0 0 0-4.784-1.703z" fill="#f9af89"/></g></svg>