<svg xmlns="http://www.w3.org/2000/svg" width="475" height="397.588" viewBox="0 0 475 397.588"><defs><clipPath id="a"><path d="M1334.664 2693.836s-4.478-6.018-4.478-12.539 4.226-11.755 4.226-11.755v-.462H1275.3c-7.193 0-13.071 5.248-13.071 11.657v2.057c0 6.409 5.877 11.657 13.071 11.657h59.111l.252-.154v-.462z" transform="translate(-1262.23 -2669.08)"/></clipPath></defs><path d="M72.57 139.046A62.949 62.949 0 0 0 135.516 76.1H9.624a62.949 62.949 0 0 0 62.946 62.946z" fill="#147cc2"/><path d="M412.055 345.223a62.949 62.949 0 0 0 62.946-62.946H349.109a62.949 62.949 0 0 0 62.946 62.946z" fill="#f9a425"/><path d="M59.877 349.14a99.107 99.107 0 0 0-2.659 31.781c-5.863 1.931-11.321 4.282-14.372 6.955h71.58a44.47 44.47 0 1 1 83.937 0h56.4a98.744 98.744 0 0 0 .7-23.5c9.558-2.785 19.326-6.717 20.781-11.419 2.939-9.544-8.676-34.118-12.189-36.469-2.253-1.512-12.707-.336-23.776 3.219a98.5 98.5 0 0 0-18.682-21.677c4.8-8.732 8.97-18.472 6.661-22.838-4.674-8.831-30.255-17.982-34.412-17.157-2.6.518-8.956 8.41-14.2 18.444a98.839 98.839 0 0 0-29.192-2.575c-2.757-9.208-6.577-18.347-11.111-19.746-9.544-2.939-34.118 8.676-36.469 12.189-1.4 2.1-.49 11.293 2.505 21.467a99.312 99.312 0 0 0-23.594 19.578c-7.991-4.156-16.275-7.319-20.208-5.248-8.83 4.674-17.982 30.255-17.157 34.412.455 2.326 6.878 7.7 15.457 12.584z" fill="#e8e8e8"/><path d="M96.738 387.862a62.374 62.374 0 1 1 120.868 0h.924a63.286 63.286 0 1 0-122.729.014h.938z" fill="#fff"/><g fill="#fff"><path d="M67.07 387.863q-.546-3.338-.84-6.717h-.014c-.406-.1-.8-.224-1.2-.35.2 2.365.49 4.73.868 7.067zM139 284.544a90.3 90.3 0 0 1 58.132 7.753c.364.182.714.392 1.078.573.042-.42.112-.826.182-1.245-.252-.126-.476-.266-.728-.392A91.477 91.477 0 0 0 139 283.327q.021.608 0 1.217z"/></g><path d="M286.232 387.862a23.771 23.771 0 1 1 25.385 0h48.994a5.865 5.865 0 0 0 .168-1.735c-.28-1.4-4.506-4.8-9.88-7.6a52.3 52.3 0 0 0 .868-15.38c5.094-1.483 10.3-3.583 11.083-6.088 1.567-5.094-4.632-18.178-6.507-19.438-1.2-.8-6.773-.182-12.679 1.721a53.432 53.432 0 0 0-9.95-11.559c2.561-4.66 4.772-9.852 3.541-12.175-2.491-4.7-16.121-9.586-18.346-9.152-1.385.28-4.772 4.478-7.571 9.838a52.4 52.4 0 0 0-15.562-1.371c-1.469-4.912-3.513-9.782-5.92-10.524-5.094-1.568-18.178 4.618-19.438 6.493-.742 1.12-.266 6.018 1.343 11.447a52.928 52.928 0 0 0-12.581 10.44c-4.254-2.211-8.676-3.9-10.775-2.8-4.7 2.491-9.586 16.121-9.152 18.346.252 1.245 3.667 4.114 8.243 6.7a52.659 52.659 0 0 0-1.413 16.933c-4.31 1.413-8.243 3.261-8.9 5.416-.742 2.407.252 6.591 1.707 10.468h47.342z" fill="#e8e8e8"/><path d="M273.358 387.862a33.048 33.048 0 1 1 55.571-5.64 33.52 33.52 0 0 1-3.569 5.64h1.134a33.635 33.635 0 0 0 3.247-5.248 33.952 33.952 0 1 0-57.5 5.233h1.12z" fill="#fff"/><g fill="#fff"><path d="M343.875 387.863a48.958 48.958 0 0 0 2.687-7.753c-.182-.126-.378-.252-.56-.378a49.174 49.174 0 0 1-2.827 8.131zM255.012 387.864a48.684 48.684 0 0 1-4.128-15.757 8.642 8.642 0 0 1-.644-.182 49.366 49.366 0 0 0 4.072 15.939zM289.676 320.607a48.06 48.06 0 0 1 30.983 4.128c.2.1.378.21.574.308.028-.224.056-.434.1-.658-.126-.07-.252-.14-.392-.209a48.76 48.76 0 0 0-31.263-4.212z"/></g><path d="M247.665 388.898h-96.308a7.94 7.94 0 0 1-7.921-7.921v-14.708a7.949 7.949 0 0 1 7.921-7.921h96.308a7.95 7.95 0 0 1 7.921 7.921v14.708a7.95 7.95 0 0 1-7.921 7.921z" fill="#1898df"/><path d="M223.412 358.796c-4.884 13.574-.35 27.023.63 29.64a.694.694 0 0 0 .658.462h11.783a.722.722 0 0 0 .686-.882c-.854-3.6-3.68-17.493.6-28.7a.722.722 0 0 0-.644-.994h-13.042a.731.731 0 0 0-.671.474zM157.771 358.796c-4.884 13.574-.35 27.023.63 29.64a.69.69 0 0 0 .644.462h11.783a.722.722 0 0 0 .686-.882c-.854-3.6-3.68-17.493.6-28.7a.722.722 0 0 0-.644-.994h-13.043a.758.758 0 0 0-.656.474z" fill="#147cc2"/><path d="M249.89 356.404s-4.478-6.018-4.478-12.539 4.226-11.755 4.226-11.755v-.462h-59.112c-7.193 0-13.071 5.248-13.071 11.657v2.057c0 6.409 5.877 11.657 13.071 11.657h59.111l.252-.154v-.462z" fill="#fff"/><g clip-path="url(#a)" transform="translate(177.456 331.648)"><path fill="#e8e8e8" d="M16.303 2.701h116.418v.532H16.303zM132.525 6.045H14.372v.531h118.041c.028-.181.07-.349.112-.531zM12.888 10.817h119.384v.532H12.888zM12.888 13.196h119.384v.532H12.888zM16.947 15.589h116.418v.532H16.947zM133.183 18.934H15.03v.531h118.041c.028-.181.07-.349.112-.531zM13.532 22.209h119.384v.532H13.532zM13.532 26.085h119.384v.532H13.532z"/></g><path d="M224.784 331.899h24.784a.693.693 0 0 0 .7-.7v-.616a.693.693 0 0 0-.7-.7h-43.032a.693.693 0 0 0-.7.7v.616a.693.693 0 0 0 .7.7h5.79a.71.71 0 0 1 .7.8 97.323 97.323 0 0 1-4.394 17.716.44.44 0 0 0-.028.112c-.1.658-.21 1.315-.28 1.973-.028.294-.056.574-.07.868a.692.692 0 0 0 .266.588 12.812 12.812 0 0 1 1.287 1.162.7.7 0 0 1-.49 1.2h-2.785a.693.693 0 0 0-.7.7v.616a.693.693 0 0 0 .7.7h43.032a.693.693 0 0 0 .7-.7v-.616a.693.693 0 0 0-.7-.7h-25.5a9.212 9.212 0 0 1-8.312-5.164 17.424 17.424 0 0 1-1.777-8.187 13.643 13.643 0 0 1 .924-4.478 10.552 10.552 0 0 1 9.885-6.59z" fill="#1898df"/><path d="M211.798 345.264v-2.309a13.1 13.1 0 0 1 13.071-13.071h-62.023a13.815 13.815 0 0 0-13.77 13.771v.91a13.815 13.815 0 0 0 13.77 13.771h62.022a13.113 13.113 0 0 1-13.07-13.072z" fill="#147cc2"/><path d="M167.94 358.334h-1.4a.693.693 0 0 1-.7-.7v-27.05a.693.693 0 0 1 .7-.7h1.4a.693.693 0 0 1 .7.7v27.051a.7.7 0 0 1-.7.699zM171.523 358.334a.693.693 0 0 1-.7-.7v-27.05a.693.693 0 0 1 .7-.7.693.693 0 0 1 .7.7v27.051a.7.7 0 0 1-.7.699zM199.399 358.334h-1.4a.693.693 0 0 1-.7-.7v-27.05a.693.693 0 0 1 .7-.7h1.4a.693.693 0 0 1 .7.7v27.051a.711.711 0 0 1-.7.699zM202.968 358.334a.693.693 0 0 1-.7-.7v-27.05a.693.693 0 0 1 .7-.7.693.693 0 0 1 .7.7v27.051a.7.7 0 0 1-.7.699z" fill="#fff"/><path fill="#1c2c57" d="M327.767 35.993h1.092v45.579h-1.092z"/><g><path d="M140.455 241.12h-12.511a16.382 16.382 0 0 0-16.387 16.387v39.45a2.29 2.29 0 0 0 4.45.756l6.1-17.549a16.686 16.686 0 0 1 15.757-11.209h8.564zM257.321 241.12h12.511a16.382 16.382 0 0 1 16.387 16.387v39.45a2.29 2.29 0 0 1-4.45.756l-6.1-17.549a16.686 16.686 0 0 0-15.757-11.209h-8.564z" fill="#ffcf52"/><path d="M175.188 152.789c15.743.448 31.319 1.819 47.09 1.189 13.266-.532 26.561-1.456 39.366-4.842-9.1-31.781-27.121-63.2-60.553-86.414-32.354 22.447-50.253 52.59-59.629 83.307 9.306 6.508 23.118 6.466 33.726 6.76z" fill="#ed6a5a"/><path d="M199.286 152.746a171.332 171.332 0 0 1-57.012-9.376c-21.649 67.284-1.413 138.347-1.413 138.347h120.434s20.474-71.888-1.805-139.522c-17.461 6.675-38.093 10.551-60.204 10.551z" fill="#004060"/><path d="M161.922 281.717l4.646 9.278h69.551l4.114-9.278z" fill="#1c2c57"/><path d="M238.4 329.884a36.827 36.827 0 0 0-73.609 0z" fill="#ffcf52"/><path fill="#ffcf52" d="M178.421 290.995h46.363v6.703h-46.363z"/><path d="M237.602 207.632a37 37 0 1 1-37-37 37 37 0 0 1 37 37z" fill="#fff"/><path d="M200.602 163.928a43.718 43.718 0 1 0 43.718 43.718 43.724 43.724 0 0 0-43.718-43.718zm0 74.2a30.493 30.493 0 1 1 30.493-30.493 30.5 30.5 0 0 1-30.493 30.49z" fill="#ffcf52"/></g><g><path d="M93.589 280.555L59.695 394.132h3.9l33.908-113.577zM129.106 280.555L95.212 394.132h3.9l33.894-113.577z" fill="#ffcf52"/><path d="M93.757 280.555v3.135l36.8-.028.56-3.107z" fill="#58c3c4"/><path d="M87.474 302.848v3.429l36.791-.028.63-3.429zM80.966 326.302l-1.5 3.442 36.8-.028.63-3.429zM74.067 349.77l-1.5 3.443 36.8-.028.63-3.428zM67.601 372.72l-1.483 3.429 36.791-.028.63-3.429z" fill="#ffcf52"/><path d="M180.661 280.555l33.894 113.577h3.918l-33.908-113.577zM145.144 280.555l33.894 113.577h3.918l-33.894-113.577z" fill="#004060"/><path d="M147.033 280.555l.574 3.107 36.791.028v-3.135zM190.695 302.848v3.429l-36.8-.028-.63-3.429zM197.205 326.302l1.484 3.442-36.8-.028-.616-3.429zM204.101 349.77l1.483 3.443-36.8-.028-.63-3.428zM210.553 372.72l1.5 3.429-36.8-.028-.63-3.429z" fill="#004060"/><path fill="#004060" d="M86.816 278.022h108.441v5.668H86.816z"/><g><path d="M114.366 245.276l3.527 9.334c.294 1.3.35 2.869-1.008 3.639a12.643 12.643 0 0 1-1.847.854c-.644-.14-4.716-12.749-4.716-12.749l.042-.07a3.365 3.365 0 0 1 4.002-1.008z" fill="#1898df"/><path d="M115.042 259.103l-4.716-12.735-.616.35 4.744 12.637z" fill="#1c2c57"/><path d="M115.769 248.97l.322.84-1.637.322-.308-.812zM116.452 250.776l.308.839-1.623.322-.308-.826z" fill="#fff"/><path d="M118.289 243.079l-3.918 2.2a2.5 2.5 0 0 0 .868 2.533l.14.112 4.324-1.106z" fill="#f9af89"/><path d="M149.524 184.163a22.542 22.542 0 0 0-4.884 11.531c-.672 4.9 1.161 12.651 1.371 18.738.182 5.57-2.323 9.992-6.745 13.393l-20.991 15.254 1.4 3.736s28.73-4.31 36.273-17.171 9.334-42 9.334-42z" fill="#1c2c57"/><path d="M133.864 168.294l-10.79 24.112s-4.436.518-6.353 2.211c-1.007.9-.965 2.673-.686 4.156a1.485 1.485 0 0 0 2.435.854c1.189-1.036 2.715-2.2 3.723-2.365a4.487 4.487 0 0 0 3.453-2.318l15.491-24.294zM187.269 119.819l5.528-4.73-4.3-23.37-6.661-3.4a1.926 1.926 0 0 1 2.365-.742 6.166 6.166 0 0 0 3.037.224s1.245-1.54-1.12-2.589c-1.329-.9-2.211 0-6.059-.154 0-.588 5.066-2 5.066-2 1.581-.5 5.612 2.617 5.612 2.617a2.872 2.872 0 0 1 .518 1.259l.644 4.338s8.578 23.524 8.578 26.029-4.8 5.948-4.8 5.948z" fill="#f9af89"/><path d="M157.514 186.584s-3.331 4-1.329 13.322c1.274 5.948 6.871 13.435 10.635 18.584 2.7 3.694 2.757 8.34 1.945 12.847-3.079 17.115 1.847 38.008 1.847 38.008h3.988s5.99-30.619 7.767-52.128a62.034 62.034 0 0 0-6.885-33.95z" fill="#004060"/><path fill="#f9a425" d="M179.576 87.457l.485-3.31 12.545 1.84-.485 3.31z"/><path fill="#fff" d="M192.012 89.3l.485-3.308 1.15.168-.486 3.308z"/><path d="M192.682 89.381c.924.126 1.693.07 1.917-1.427.238-1.637-.5-1.777-1.427-1.917z" fill="#1c2c57"/><path d="M179.654 87.478l-2.435-1.469.182-1.2 2.743-.644z" fill="#fff"/><path d="M177.219 86.008l-1.064-.756 1.245-.448z" fill="#004060"/><path fill="#f58a27" d="M179.815 86.904l.11-.748 12.115 1.78-.11.748zM192.192 86.386l-.112.756-12.119-1.777.112-.756z"/><path d="M147.718 139.284c-7.137 5.248-14.484 30.437-14.484 30.437l6.27 3.513 9.152-13.994s.994 16.191-1.441 28.618c1.106 4.66 6.409 4.128 14.988 2.5a42.449 42.449 0 0 0 14.19-5.318s.364-22.475 1.483-34.384-1.078-13.182 1.917-12.791c6.7-3.806 17.689-16.065 17.689-16.065l-10.2-1.987-21.971 12.875c-.016-.01-10.75 2.831-17.593 6.596z" fill="#147cc2"/><path d="M160.159 109.476l5.3 5.234a9.192 9.192 0 0 1 2.519 8.537l-.616 2.8z" fill="#f9af89"/><path d="M153.75 107.489c-12.861 0-7.389 24.7-7.389 24.7s2.3 16.023 7.389 22.461c4.422 5.57 13.155 3.89 17.3 1.218a15.823 15.823 0 0 1 6.689-2.463c3.5-.42 7.669-1.973 7.669-8.3 0-5.948-7.109-10.552-11.783-13.84a15.357 15.357 0 0 1-6.059-8.97c-1.515-6.106-5.168-14.806-13.816-14.806z" fill="#1c2c57"/><g><path d="M171.282 273.782l9.978-.014c1.329.182 2.8.686 3.051 2.225a12.27 12.27 0 0 1 .14 2.029c-.35.56-13.588-.07-13.588-.07l-.056-.056a3.391 3.391 0 0 1 .475-4.114z" fill="#1898df"/><path d="M184.467 278.022l-13.588-.07.126.7h13.49z" fill="#004060"/><path d="M175.245 273.768l.9.014-.28 1.637h-.868zM177.176 273.768l.9.014-.28 1.637h-.882z" fill="#fff"/><path d="M170.599 269.346l.686 4.436a2.5 2.5 0 0 0 2.673.084l.154-.084.476-4.436z" fill="#f9af89"/></g><path d="M184.215 87.575a1.925 1.925 0 0 0-2.365.742l4.422 2.267c.056-.028.126-.056.182-.084a20.616 20.616 0 0 1 2.925-1.063c-.406-.434-4.352-1.582-5.164-1.862z" fill="#f9af89"/></g></g><g><path d="M57.707 218.057a6.265 6.265 0 0 0-.266 4.506l.826 5.849 1.008.672 3.736 1.54a3.977 3.977 0 0 1 0-2.337l1.637-6.045s2.547-10.2-4.38-9.768c.042-8.312-2.281-6.941-2.281-6.941l-.154 7.179z" fill="#f9af89"/><path d="M40.48 238.265s4.842 18.472 8.97 18.808 8.424-29.276 8.424-29.276l5.612.686s2.183 42.57-10.411 43.34-14.26-8.634-14.26-8.634z" fill="#ffcf52"/><path d="M39.949 288.784H7.007v-50.043c9.418-14.358 21.145-10.454 21.145-10.454s10.664.2 12.329 9.978c-.004 7.081-.532 50.519-.532 50.519z" fill="#1898df"/><path d="M24.304 221.639l-.49 7.067.238.224a6.112 6.112 0 0 0 8.326.112l.112-5.318z" fill="#f69b81"/><path d="M21.714 206.862l.588 11.7a1.809 1.809 0 0 1 1.623 2.295 2.25 2.25 0 0 1 .2.868 13.482 13.482 0 0 0 10.426 2.435c7.4-1.413 2.939-15.729 2.939-15.729z" fill="#f9af89"/><path d="M17.992 215.65a7.344 7.344 0 0 0-1.875-3.247c-4.184-3.625-.448-6.27.882-7.123 1.469-.952 1.176-3.611 3.093-5.108 2.911-2.281 5.709.084 7.571-.266s3.023-2.827 5.724-1.512 2.407 3.442 3.275 4.338 2.463-1.581 5.108 1.245c4.016 4.311-3.862 6.144-3.862 6.144a14.228 14.228 0 0 1-10.02-.462 1.869 1.869 0 0 0-2.211.545c-1.357 1.861-1.371 11.615-1.371 11.615l-1.9-1.581c-.02.03-4.162-.67-4.414-4.588z" fill="#1c2c57"/><path d="M22.428 216.602a1.792 1.792 0 1 0 .979-2.337 1.786 1.786 0 0 0-.979 2.337z" fill="#f9af89"/><path d="M32.49 383.133s1.861 2.575 10.608 4.8c1.931.49 4 .826 4 4h-8.635l-8.83-1.525v1.525h-4.772s-1.329-7.809 1.455-8.8z" fill="#1c2c57"/><path d="M32.938 377.535l-.448 5.612a5.4 5.4 0 0 1-5.85.2l-.322-.2v-5.612z" fill="#f9af89"/><path d="M7.944 383.133s1.861 2.575 10.608 4.8c1.931.49 4 .826 4 4h-8.635l-8.83-1.525v1.525H.315s-1.329-7.809 1.455-8.8z" fill="#1c2c57"/><path d="M8.392 377.535l-.448 5.612a5.4 5.4 0 0 1-5.85.2l-.322-.2v-5.612z" fill="#f9af89"/><path d="M7.021 238.74s-9.88 22.8 2.729 34.44 29.709 9.656 29.709 9.656v-6.563s-15.464-1.3-20.417-11.643 1.987-19.284 1.987-19.284" fill="#1898df"/><path d="M38.452 281.94l7.893.168c3.2-.182 5.332-4.954 5.864-8.509a.726.726 0 0 0-.952-.784c-2.673.923-9.558 3.358-11.335 4.464z" fill="#f9af89"/><path d="M39.949 288.784c9.824 27.751-5.528 89.185-5.528 89.185h-8.746s4.128-87.114-7.263-89.185z" fill="#1c2c57"/><path d="M17.278 257.731a17.591 17.591 0 0 0 1.763 6.9c4.954 10.327 21.215 11.7 21.215 11.7v6.633s-17.913 1.861-30.507-9.8c-4.562-4.226-6.172-9.908-6.381-15.449h13.91z" fill="#ffcf52"/><g><path d="M17.362 258.738c-.35-.154-.686-.308-1.035-.476a21.074 21.074 0 0 1 3.932-13.463l.77.616a19.9 19.9 0 0 0-3.667 13.323z" fill="#fff"/></g><path d="M59.219 218.939s-1.819-.546-2.1-3.863-1.847-2.295-1.847-2.295.812 13.071 2.9 13.56 1.047-7.402 1.047-7.402z" fill="#f9af89"/><path d="M30.265 288.784c2.673 34.02-19.046 89.185-19.046 89.185H.807s7.067-35.279 7.221-68.376a178.37 178.37 0 0 0-1.022-20.81z" fill="#004060"/></g><g><path d="M415.33 72.657s3.191-.056 8.061 2.5c1.077.56 1.749 1.707 3.037.266-1.847-1.665-4.814-4.324-4.814-4.324l-4.618-2.9.615-.686-2.169-1.945s-3.779 2.995-2.911 4.576a390.797 390.797 0 0 0 2.799 2.513z" fill="#1c2c57"/><path d="M278.171 71.327l6.633 2.183.406-6.717-8.284-2.015z" fill="#f69b81"/><path d="M277.71 73.609a3.689 3.689 0 0 1-1.385 1.609c-4.338.532-11.643-6.437-11.643-6.437l.35-4.282 5.094-3.022 5.906 2.743a5.3 5.3 0 0 1 2.953 4.058 10.5 10.5 0 0 1-1.275 5.331z" fill="#f9af89"/><path d="M271.147 63.589a2.174 2.174 0 0 0-2.561 1.428 16.255 16.255 0 0 1-1.036 2.519c-1.021 1.973-3.079 4.03-6.087 2.477s-.056-4.73-.056-4.73 5.094-7 8.831-8.8c1.791-.868 3.918 3.232 5.15 4.968a10.138 10.138 0 0 1 1.553 3.317z" fill="#1c2c57"/><path d="M274.281 61.993a1.685 1.685 0 0 0-.8 1.931c.182.826.825 1.3 1.441 1.063a1.685 1.685 0 0 0 .8-1.931c-.168-.824-.825-1.301-1.441-1.063z" fill="#f9af89"/><path d="M407.045 61.49s3.121-.644 8.382.952c1.161.35 2.029 1.343 3.037-.308l-5.528-3.344-5.08-1.987.476-.8-2.491-1.5s-3.149 3.639-2.015 5.038z" fill="#1c2c57"/><path d="M405.463 64.331l1.511-3.064a3.29 3.29 0 0 0-2.995-1.931h-.238l-1.749 2.925z" fill="#f9af89"/><path d="M327.641 100.8s43.886 16.373 58.426-4.464l20.767-33.068-3.876-3.639-23.244 27.443a33.58 33.58 0 0 1-4.282 4.184l-42.15-9.208z" fill="#1c2c57"/><path d="M243.341 98.924a5.925 5.925 0 0 1-3.4.518c-1.931-.112-5.877-1.623-5.4.5 1.665 1.329 3.484 3.121 3.484 3.121 1.092.7 3.233.476 4.562.056l3.918-1.791s.63-2.1.686-2.2l-.77-.476a9.2 9.2 0 0 1-3.08.272z" fill="#f9af89"/><path d="M242.556 99.722a2.591 2.591 0 0 1-.252.21c.238.154.462.308.686.476.994.182 1.987.392 2.981.588.028-.63.084-1.511.1-1.567l-6.255-2.645s-.644.644.434 1.623a6.185 6.185 0 0 0 2.306 1.315z" fill="#f9af89"/><path d="M229.094 94.306l-6.507 14.624 17.885 8.579 5.948-17.2z" fill="#004060"/><path d="M413.244 75.163l2.057-2.743a3.3 3.3 0 0 0-2.589-2.449l-.224-.042-2.267 2.547z" fill="#f9af89"/><path d="M284.273 73.23c5.612 12.9 43.452 27.667 43.452 27.667s10.328-19.886 11.293-21.761c-30.423-20.389-54.353-12.623-54.353-12.623s-.21 3.751-.392 6.717zM284.022 72.209l-16.121 14.512a11.607 11.607 0 0 1-2.729 1.819L245.286 98l1.3 4.464 22.461-4.744a10.916 10.916 0 0 0 4.884-2.407l4.954-3.2z" fill="#ed6a5a"/><path d="M330.006 96.517s40.079 24.252 58.244 6.479l26.561-28.632-3.135-4.3-27.946 22.643a32.191 32.191 0 0 1-5 3.3l-39.7-16.877z" fill="#004060"/><path d="M282.832 72.755l-.084-6.7 2.687.252-.2 8.69z" fill="#fff"/><g><path d="M252.996 108.23l-5.192 3.344c-2.211 1.19-5.584-1.12-7.389-3.275a.566.566 0 0 1 .322-.91c2.169-.476 7.753-1.679 9.39-1.665z" fill="#f9af89"/><path d="M296.519 68.08c-7.137-5.094-18.878 12.525-22.153 17.787a8.813 8.813 0 0 1-2.337 2.491l-24.154 17.437 3.247 3.932 28.086-13.435a12.038 12.038 0 0 0 3.065-2.1c5.052-4.77 21.352-21.045 14.246-26.112z" fill="#ed6a5a"/><g fill="#fff"><path d="M271.851 88.121l-10.566 7.627.378.462 10.538-7.6a9.228 9.228 0 0 0 2.421-2.575c1.693-2.729 6.283-9.74 11.209-14.316 0-.294.014-.574.028-.854-4.9 4.38-9.516 11.293-11.741 14.862a8.775 8.775 0 0 1-2.267 2.394zM279.082 96.013l-12.595 6.018.392.476 12.455-5.961a12.019 12.019 0 0 0 3.135-2.155 106.684 106.684 0 0 0 10.608-11.475c-.182-.1-.364-.21-.532-.322a107.444 107.444 0 0 1-10.482 11.349 11.505 11.505 0 0 1-2.981 2.07z"/></g></g></g><g><path d="M349.165 225.446l.672 8.411 8.242.35-3.316-13.029z" fill="#f69b81"/><g fill="#f9af89"><path d="M325.976 231.954c-.126-.392-.714-1.693-3.023-3.485-2.071-1.6-7.333-3.667-5.052-5.248 2.827.224 6.171.154 6.171.154 1.693.308 3.68 2.421 4.674 3.96l2.463 5.136s-1.134 2.519-1.161 2.645l-1.176-.224a14.053 14.053 0 0 0-2.896-2.938z"/><path d="M325.85 230.512a1.84 1.84 0 0 0-.07-.42 9.742 9.742 0 0 0 1.092.154c1.161.714 2.351 1.385 3.526 2.085a59.59 59.59 0 0 0-1.231 1.553l-8.578-3.051s-.1-1.176 1.805-1.134a9.106 9.106 0 0 1 3.456.813z"/></g><path d="M338.92 249.376l-13.238-12.3 4.576-6.829 18.108 8.55-7.893 13.854z" fill="#1898df"/><path d="M353.629 228.847c18.878-3.918 15.59 58.594 15.59 58.594h-29.864s-.434-10.887-1.525-24.686c-.924-11.7 5.639-24.924 15.799-33.908z" fill="#1898df"/><path d="M343.791 390.843s-2.939 2.729-9.642 4.436c-1.469.378-3.065-.126-3.065 2.309h8.145l6.773-1.176v1.176h3.652s1.022-5.976-1.12-6.746z" fill="#1c2c57"/><path d="M344.201 386.547l-.406 4.3a4.152 4.152 0 0 0 4.478.154l.252-.154.756-4.3z" fill="#f9af89"/><g fill="#f9af89"><path d="M301.459 248.426c-.406-.042-1.819-.322-4.058-2.155-2.015-1.651-5.206-6.339-6.241-3.75.854 2.7 1.525 5.976 1.525 5.976.672 1.581 3.177 3.051 4.912 3.667l5.556 1.259s2.2-1.665 2.323-1.735l-.476-1.106a13.415 13.415 0 0 1-3.541-2.156z"/><path d="M300.031 248.621a2.609 2.609 0 0 1-.42.028c.154.336.28.686.406 1.036.952.979 1.875 1.987 2.813 2.967.49-.63 1.176-1.5 1.231-1.554l-4.884-7.683s-1.162.168-.7 2.015a8.852 8.852 0 0 0 1.554 3.191z"/></g><path d="M372.521 384.826s-2.939 2.729-9.642 4.436c-1.469.378-3.065-.126-3.065 2.309h8.145l6.773-1.176v1.176h3.652s1.022-5.976-1.12-6.745z" fill="#1c2c57"/><path d="M372.941 380.53l-.406 4.3a4.152 4.152 0 0 0 4.478.154l.252-.154.756-4.3z" fill="#f9af89"/><path d="M369.205 287.441s-2.393 12.651-.252 38.862a47.649 47.649 0 0 0 3.121 13.5c5.752 14.736 6.535 41.941 6.535 41.941h-6.577l-23.188-66.3z" fill="#1c2c57"/><path d="M358.079 249.475s-5.164 19.228-19.158 21-37.029-15.939-37.029-15.939l2.533-5.066 24.294 6.8a8.247 8.247 0 0 0 9.46-4l7.319-13.477z" fill="#1898df"/><path d="M339.355 287.44l4.338 100.254h5.891s6.591-23.37 6.1-41.8a42.875 42.875 0 0 1 3.009-17.073 157.836 157.836 0 0 0 10.524-41.381h-29.862z" fill="#004060"/><path d="M287.982 238.797l21.131 15.9 24.168-18.892-19.746-14.625z" fill="#ffcf52"/><path d="M316.068 258.668a14.852 14.852 0 0 1 1.287-5.584l-12.917-3.61-2.533 5.066a122.027 122.027 0 0 0 14.75 9.446 18.63 18.63 0 0 1-.587-5.318z" fill="#1898df"/><path d="M357.715 249.376c-.056.2-5.262 19-18.836 20.726-12.665 1.6-33.18-13.21-36.329-15.548-.154.2-.322.392-.49.587 3.037 2.281 21.649 15.842 34.79 15.842a17.548 17.548 0 0 0 2.127-.126c14.092-1.777 19.424-21.089 19.48-21.285z" fill="#fff"/><g fill="#f9af89"><path d="M297.864 252.217l4.548 1.036a14.174 14.174 0 0 1 1.665-3.079 13.619 13.619 0 0 1-2.6-1.735c-.406-.042-1.805-.322-4.058-2.155a19.127 19.127 0 0 1 .518 5.01c-.033.31-.047.616-.073.923z"/><path d="M303.754 250.636l-4.59-7.221s-1.161.168-.7 2.015a9.009 9.009 0 0 0 1.567 3.191 2.61 2.61 0 0 1-.42.028c.154.336.28.686.406 1.036.924.938 1.805 1.9 2.715 2.855a11.833 11.833 0 0 1 1.022-1.904z"/></g><g fill="#f9af89"><path d="M324.507 227.825c-.056 0-.112.014-.154.014a6.756 6.756 0 0 1 1.792 2.421 14.988 14.988 0 0 1 1.511 1.315c.056-.476.14-.923.238-1.372a15.851 15.851 0 0 1-3.387-2.378z"/><path d="M325.333 228.539a8.75 8.75 0 0 0-2.785-.532c-1.9-.042-1.805 1.134-1.805 1.134l6.913 2.449c.056-.476.126-.937.224-1.385a16.954 16.954 0 0 1-2.547-1.666z"/></g><path d="M349.165 233.311v-4.128l6.9-2.869 2.5 3.177z" fill="#fff"/><path d="M345.387 228.749a4.735 4.735 0 0 1-2.855-.42c-3.89-4.94-1.651-19.62-1.651-19.62l12.287.868 1.414 9.516a8.1 8.1 0 0 1-2.3 6.927 12.9 12.9 0 0 1-6.895 2.729z" fill="#f9af89"/><path d="M347.527 210.444a26.007 26.007 0 0 1-8.215.882c-4.3-.294-2.1-5.22-2.1-5.22s3.261 1.092 8.718-.322c3.68-.951 4.6-1.791 7.137-.77 3.443 1.385 3.289 7.347 3.289 7.347l-.448 12.637-.686.882s-.952-8.187-1.217-10.705c-.826-1.078-1.6-.994-2.155-.644a1.876 1.876 0 0 0-.812 1.819l1.4 12.917s-7.851 4.436-10.006 4.017-1.791-10.146-1.791-10.146a3.845 3.845 0 0 1 4.394.588c2.071 1.875 4.086-.532 4.086-.532z" fill="#1c2c57"/><path d="M352.859 214.097a2.134 2.134 0 0 0-1.777 2.2c-.042 1.19.672 2.127 1.609 2.113a2.123 2.123 0 0 0 1.777-2.2c.042-1.203-.672-2.141-1.609-2.113z" fill="#f9af89"/></g><path d="M355.546 15.435a14.385 14.385 0 0 0-3.667.49 22.12 22.12 0 0 0-42.178-.924 15.427 15.427 0 0 0-7.459-1.9 15.59 15.59 0 1 0 0 31.179c.112 0 .21-.014.322-.014v.014h52.982a14.421 14.421 0 0 0 0-28.842z" fill="#1898df"/></svg>