<?xml version="1.0" encoding="utf-8"?>
<!-- Generator: Adobe Illustrator 22.0.0, SVG Export Plug-In . SVG Version: 6.00 Build 0)  -->
<svg version="1.1" id="Layer_1" xmlns="http://www.w3.org/2000/svg" xmlns:xlink="http://www.w3.org/1999/xlink" x="0px" y="0px"
	 viewBox="0 0 231.8 67.1" style="enable-background:new 0 0 231.8 67.1;" xml:space="preserve">
<style type="text/css">
	.st0{fill:#0871B9;}
	.st1{fill:#6D6E71;}
	.st2{fill:url(#SVGID_1_);}
	.st3{fill:url(#SVGID_2_);}
	.st4{clip-path:url(#SVGID_4_);fill:#0871B9;}
	.st5{fill:url(#SVGID_5_);}
	.st6{clip-path:url(#SVGID_7_);fill:#0871B9;}
</style>
<g>
	<path class="st0" d="M10.9,39.1c0,3.1,0.2,3.2,5,3.5v1.8H0.1v-1.8c4.8-0.4,5-0.5,5-3.5V11.3c0-3.1-0.1-3.2-5-3.5V5.9h15.8v1.8
		c-4.8,0.3-5,0.4-5,3.5V39.1z"/>
	<path class="st0" d="M74.3,5.9v1.8c-3.4,0.2-4.1,0.5-5.1,3.7c-3,9.7-6.6,22.7-9.4,33.1h-4.6c-2.8-9.8-5.8-20-9.1-30.2h-0.1
		c-2.2,7.6-6.1,21.9-8.5,30.2h-4.6c-3-11.2-6-22.1-9.2-33.2c-0.9-3.2-1.5-3.4-4.7-3.5V5.9h14.4v1.8L30.5,8c-1.4,0.2-1.6,0.4-1.2,2.2
		c2.2,8.7,4.7,18,7.6,27.4H37c2.8-10.2,6-22,8.4-30.8h4.3c3,10.1,6.3,20.7,9.3,30.8h0.2c2.1-7.7,5.3-19.5,7-27.5
		c0.3-1.2,0.1-2-1.2-2.1l-3.4-0.4V5.9H74.3z"/>
	<path class="st0" d="M95.7,39.1c0,2.5,0.1,3.1,3.3,3.4l2.8,0.2v1.8H83.8v-1.8l2.8-0.2c3.1-0.2,3.2-0.9,3.2-3.4V8h-3.2
		c-6.4,0-7.4,1.4-8.1,7.8h-1.9V5.9H109v9.9h-1.9C106.3,9.3,105.4,8,99,8h-3.2V39.1z"/>
</g>
<g>
	<path class="st1" d="M0,55.3h1.3v10.4H0V55.3z"/>
	<path class="st1" d="M3.1,55.3h2.2l2.1,8.3h0l2.1-8.3h2.2v10.4h-1.3v-9.1h0L8,65.7H6.8l-2.3-9.1h0v9.1H3.1V55.3z"/>
	<path class="st1" d="M13.5,55.3h2.7c0.9,0,3.2,0,3.2,3c0,1.9-1.2,3-3,3h-1.6v4.4h-1.3V55.3z M14.8,60.2h1.5c0.9,0,1.7-0.6,1.7-2
		c0-1.1-0.5-1.9-1.8-1.9h-1.4V60.2z"/>
	<path class="st1" d="M22.2,55.3h1.7l2.8,10.4h-1.3l-0.7-2.9h-3.3l-0.8,2.9h-1.3L22.2,55.3z M21.6,61.8h2.8l-1.3-5h0L21.6,61.8z"/>
	<path class="st1" d="M33.9,62.1c-0.1,2-0.9,3.8-3.2,3.8c-3,0-3.4-2.8-3.4-5.4c0-2.6,0.5-5.4,3.4-5.4c2.1,0,3,1.2,3.1,3.2h-1.3
		c0-1.2-0.4-2.2-1.7-2.2c-1.8,0-2,2-2,4.4c0,2.4,0.2,4.4,2,4.4c1.6,0,1.8-1.5,1.8-2.7H33.9z"/>
	<path class="st1" d="M38.4,65.7h-1.3v-9.3h-2.6v-1.1h6.5v1.1h-2.6V65.7z"/>
	<path class="st1" d="M46.3,54.5h1.1v12.6h-1.1V54.5z"/>
	<path class="st1" d="M52.1,55.3h1.3l1.6,8.5h0l1.5-8.5h1.5l1.5,8.5h0l1.6-8.5h1.3l-2.1,10.4h-1.6l-1.4-8.4h0l-1.5,8.4h-1.6
		L52.1,55.3z"/>
	<path class="st1" d="M70.1,60.5c0,2.6-0.5,5.4-3.4,5.4s-3.4-2.8-3.4-5.4c0-2.6,0.5-5.4,3.4-5.4S70.1,57.9,70.1,60.5z M64.7,60.5
		c0,2.4,0.2,4.4,2,4.4c1.8,0,2-2,2-4.4c0-2.4-0.2-4.4-2-4.4C65,56.1,64.7,58.1,64.7,60.5z"/>
	<path class="st1" d="M71.8,55.3h3.4c1.6,0,2.7,1,2.7,2.6c0,1.1-0.4,2.3-1.6,2.6v0c0.9,0.1,1.4,0.8,1.5,1.7l0.1,1.8
		c0.1,1.2,0.2,1.4,0.6,1.6h-1.5c-0.2-0.2-0.3-1-0.4-1.5l-0.1-1.6c-0.1-1.4-0.9-1.5-1.5-1.5h-1.7v4.6h-1.3V55.3z M73.1,60h1.3
		c0.8,0,2.1,0,2.1-2c0-1-0.7-1.7-1.9-1.7h-1.5V60z"/>
	<path class="st1" d="M79.5,55.3h1.3v5h0l3.6-5h1.4l-3.1,4.3l3.4,6.1h-1.4l-2.8-5l-1.1,1.5v3.5h-1.3V55.3z"/>
	<path class="st1" d="M86.9,55.3h5.4v1.1h-4.1v3.3h3.9v1.1h-3.9v4.9h-1.3V55.3z"/>
	<path class="st1" d="M100.1,60.5c0,2.6-0.5,5.4-3.4,5.4c-2.9,0-3.4-2.8-3.4-5.4c0-2.6,0.5-5.4,3.4-5.4
		C99.6,55.1,100.1,57.9,100.1,60.5z M94.7,60.5c0,2.4,0.2,4.4,2,4.4c1.8,0,2-2,2-4.4c0-2.4-0.2-4.4-2-4.4
		C95,56.1,94.7,58.1,94.7,60.5z"/>
	<path class="st1" d="M101.8,55.3h3.4c1.6,0,2.7,1,2.7,2.6c0,1.1-0.4,2.3-1.6,2.6v0c0.9,0.1,1.4,0.8,1.5,1.7l0.1,1.8
		c0.1,1.2,0.2,1.4,0.6,1.6h-1.5c-0.2-0.2-0.3-1-0.3-1.5l-0.1-1.6c-0.1-1.4-0.9-1.5-1.5-1.5h-1.7v4.6h-1.3V55.3z M103.1,60h1.3
		c0.8,0,2.1,0,2.1-2c0-1-0.7-1.7-1.9-1.7h-1.5V60z"/>
	<path class="st1" d="M115.9,62.1c-0.1,2-0.9,3.8-3.2,3.8c-3,0-3.4-2.8-3.4-5.4c0-2.6,0.5-5.4,3.4-5.4c2.1,0,3,1.2,3.1,3.2h-1.3
		c0-1.2-0.4-2.2-1.7-2.2c-1.8,0-2,2-2,4.4c0,2.4,0.2,4.4,2,4.4c1.6,0,1.8-1.5,1.8-2.7H115.9z"/>
	<path class="st1" d="M117.2,55.3h5.4v1.1h-4.1v3.3h3.9v1.1h-3.9v3.7h4.3v1.1h-5.6V55.3z"/>
	<path class="st1" d="M128.2,54.5h1.1v12.6h-1.1V54.5z"/>
	<path class="st1" d="M138,65.7h-1.3v-9.3h-2.6v-1.1h6.5v1.1H138V65.7z"/>
	<path class="st1" d="M141.7,55.3h5.4v1.1H143v3.3h3.9v1.1H143v3.7h4.3v1.1h-5.6V55.3z"/>
	<path class="st1" d="M155,62.1c-0.1,2-0.9,3.8-3.2,3.8c-3,0-3.4-2.8-3.4-5.4c0-2.6,0.5-5.4,3.4-5.4c2.1,0,3,1.2,3.1,3.2h-1.3
		c0-1.2-0.4-2.2-1.7-2.2c-1.8,0-2,2-2,4.4c0,2.4,0.2,4.4,2,4.4c1.6,0,1.8-1.5,1.8-2.7H155z"/>
	<path class="st1" d="M162.4,65.7h-1.3v-5h-3.6v5h-1.3V55.3h1.3v4.3h3.6v-4.3h1.3V65.7z"/>
	<path class="st1" d="M164.3,55.3h1.7l3.4,8.7h0v-8.7h1.3v10.4h-1.8l-3.3-8.4h0v8.4h-1.3V55.3z"/>
	<path class="st1" d="M179.1,60.5c0,2.6-0.5,5.4-3.4,5.4s-3.4-2.8-3.4-5.4c0-2.6,0.5-5.4,3.4-5.4S179.1,57.9,179.1,60.5z
		 M173.7,60.5c0,2.4,0.2,4.4,2,4.4c1.8,0,2-2,2-4.4c0-2.4-0.2-4.4-2-4.4C173.9,56.1,173.7,58.1,173.7,60.5z"/>
	<path class="st1" d="M180.8,55.3h1.3v9.3h4.2v1.1h-5.5V55.3z"/>
	<path class="st1" d="M193.9,60.5c0,2.6-0.5,5.4-3.4,5.4c-2.9,0-3.4-2.8-3.4-5.4c0-2.6,0.5-5.4,3.4-5.4
		C193.5,55.1,193.9,57.9,193.9,60.5z M188.6,60.5c0,2.4,0.2,4.4,2,4.4c1.8,0,2-2,2-4.4c0-2.4-0.2-4.4-2-4.4
		C188.8,56.1,188.6,58.1,188.6,60.5z"/>
	<path class="st1" d="M200.6,58.2c-0.1-1.1-0.5-2-1.7-2c-1.8,0-2,2-2,4.4c0,2.4,0.2,4.4,2,4.4c1.8,0,1.9-2.1,1.9-3.5h-2.1v-1.1h3.2
		v5.4h-1v-1.4h0c-0.3,0.9-1.1,1.6-2.2,1.6c-2.7,0-3.2-2.6-3.2-5.4c0-2.6,0.5-5.4,3.4-5.4c3,0,3.1,2.5,3.1,3.1H200.6z"/>
	<path class="st1" d="M202.7,55.3h1.4l2,4.9l2.1-4.9h1.3l-2.8,6.3v4.1h-1.3v-4.1L202.7,55.3z"/>
</g>
<g>
	<g>
		<linearGradient id="SVGID_1_" gradientUnits="userSpaceOnUse" x1="115.9121" y1="23.6145" x2="154.457" y2="23.6145">
			<stop  offset="0" style="stop-color:#BCBEC0"/>
			<stop  offset="0.86" style="stop-color:#808285"/>
		</linearGradient>
		<path class="st2" d="M154.5,23.6c0,4.9-8.6,8.9-19.3,8.9c-10.6,0-19.3-4-19.3-8.9c0-4.9,8.6-8.9,19.3-8.9
			C145.8,14.7,154.5,18.7,154.5,23.6z"/>
		<linearGradient id="SVGID_2_" gradientUnits="userSpaceOnUse" x1="136.1348" y1="24.6411" x2="192.7944" y2="24.6411">
			<stop  offset="0.24" style="stop-color:#BCBEC0"/>
			<stop  offset="0.925" style="stop-color:#808285"/>
		</linearGradient>
		<path class="st3" d="M144.6,44.1c0,0,28.7-7.8,28.7-20.8c0-10-11.5-16.7-37.2-17.2C213.7-2.6,206.9,47.5,144.6,44.1z"/>
		<g>
			<defs>
				<path id="SVGID_3_" d="M144.6,44.1c0,0,28.7-7.8,28.7-20.8c0-10-11.5-16.7-37.2-17.2C213.7-2.6,206.9,47.5,144.6,44.1z"/>
			</defs>
			<clipPath id="SVGID_4_">
				<use xlink:href="#SVGID_3_"  style="overflow:visible;"/>
			</clipPath>
			<rect x="142.6" y="23.1" class="st4" width="30.7" height="36.5"/>
		</g>
		<linearGradient id="SVGID_5_" gradientUnits="userSpaceOnUse" x1="164.332" y1="23.7595" x2="231.799" y2="23.7595">
			<stop  offset="0.205" style="stop-color:#BCBEC0"/>
			<stop  offset="0.9" style="stop-color:#808285"/>
		</linearGradient>
		<path class="st5" d="M182.5,47.5c0,0,27.2-9.7,27.2-25.6c0-12.2-14-20.4-45.4-21C256.6-7.7,245.8,49.3,182.5,47.5z"/>
	</g>
	<g>
		<defs>
			<path id="SVGID_6_" d="M182.5,47.5c0,0,27.2-9.7,27.2-25.6c0-12.2-14-20.4-45.4-21C256.6-7.7,245.8,49.3,182.5,47.5z"/>
		</defs>
		<clipPath id="SVGID_7_">
			<use xlink:href="#SVGID_6_"  style="overflow:visible;"/>
		</clipPath>
		<polygon class="st6" points="209.7,51 209.7,21.5 176.2,21.5 176.2,61.5 		"/>
	</g>
</g>
</svg>
